<?xml version="1.0" encoding="UTF-8" standalone="no"?>
<!-- Generator: Adobe Illustrator 18.0.0, SVG Export Plug-In . SVG Version: 6.00 Build 0)  -->

<svg
   xmlns:dc="http://purl.org/dc/elements/1.1/"
   xmlns:cc="http://creativecommons.org/ns#"
   xmlns:rdf="http://www.w3.org/1999/02/22-rdf-syntax-ns#"
   xmlns:svg="http://www.w3.org/2000/svg"
   xmlns="http://www.w3.org/2000/svg"
   xmlns:sodipodi="http://sodipodi.sourceforge.net/DTD/sodipodi-0.dtd"
   xmlns:inkscape="http://www.inkscape.org/namespaces/inkscape"
   version="1.1"
   id="Capa_1"
   x="0px"
   y="0px"
   viewBox="0 0 48.77 48.77"
   style="enable-background:new 0 0 48.77 48.77;"
   xml:space="preserve"
   inkscape:version="0.91 r13725"
   sodipodi:docname="whatsapp-logo.svg"><metadata
     id="metadata47"><rdf:RDF><cc:Work
         rdf:about=""><dc:format>image/svg+xml</dc:format><dc:type
           rdf:resource="http://purl.org/dc/dcmitype/StillImage" /><dc:title></dc:title></cc:Work></rdf:RDF></metadata><defs
     id="defs45" /><sodipodi:namedview
     pagecolor="#ffffff"
     bordercolor="#666666"
     borderopacity="1"
     objecttolerance="10"
     gridtolerance="10"
     guidetolerance="10"
     inkscape:pageopacity="0"
     inkscape:pageshadow="2"
     inkscape:window-width="1366"
     inkscape:window-height="704"
     id="namedview43"
     showgrid="false"
     inkscape:zoom="10.4"
     inkscape:cx="15.123438"
     inkscape:cy="24.054006"
     inkscape:window-x="0"
     inkscape:window-y="27"
     inkscape:window-maximized="1"
     inkscape:current-layer="Capa_1" /><path
     inkscape:connector-curvature="0"
     id="path5"
     d="M 32.697,12.704 C 20.803,2.935 4.205,18.644 12.957,31.07 c -1.317,1.683 -2.176,3.654 -2.811,5.688 -0.173,0.554 0.368,0.958 0.868,0.868 1.986,-0.358 4.006,-0.643 5.973,-1.099 0.032,0.035 0.067,0.069 0.107,0.097 0.27,0.192 0.56,0.286 0.855,0.3 0.004,0.002 0.006,0.004 0.01,0.006 6.616,2.029 14.056,0.619 18.038,-5.488 3.905,-5.987 2.159,-14.254 -3.3,-18.738 z m 1.423,19.18 c -3.978,4.587 -10.286,5.263 -15.869,3.989 -0.144,-0.033 -0.265,-0.007 -0.368,0.044 -0.106,-0.082 -0.21,-0.164 -0.329,-0.211 -0.011,-0.004 -0.023,-0.003 -0.034,-0.006 -0.067,-0.256 -0.26,-0.466 -0.577,-0.432 -1.698,0.185 -3.39,0.496 -5.078,0.788 0.566,-1.637 1.242,-3.225 1.854,-4.849 0.02,-0.053 0.02,-0.104 0.011,-0.153 0.014,-0.078 0.01,-0.164 -0.034,-0.257 -2.657,-5.53 -2.823,-11.939 1.968,-16.432 4.502,-4.222 11.399,-4.4 16.137,-0.505 5.34,4.391 7.071,12.545 2.319,18.024 z"
     style="fill:#1d1d1b" /><path
     inkscape:connector-curvature="0"
     id="path9"
     d="M 25.509,0.071 C 11.16,-0.972 -0.214,9.636 0.206,23.998 0.593,37.284 10.981,49.271 24.74,48.753 38.123,48.708 48.747,38.027 48.573,24.552 48.408,11.702 38.367,1.005 25.509,0.071 Z M 41.258,25.95 c 2.061,0.011 4.126,0.044 6.188,0.017 -0.04,0.643 -0.099,1.28 -0.191,1.906 -1.992,-0.139 -4.001,-0.142 -5.996,-0.201 -0.105,-0.003 -0.104,0.159 0,0.162 1.988,0.074 3.986,0.204 5.977,0.2 -0.188,1.219 -0.472,2.404 -0.848,3.544 -0.011,-0.028 -0.031,-0.053 -0.07,-0.054 -1.686,-0.06 -3.375,-0.08 -5.062,-0.091 -0.101,-0.001 -0.1,0.153 0,0.156 1.687,0.053 3.375,0.098 5.062,0.102 0.016,0 0.025,-0.009 0.036,-0.015 -0.356,1.061 -0.782,2.09 -1.286,3.072 -2.044,0.097 -4.086,0.233 -6.128,0.354 -0.102,0.006 -0.103,0.166 0,0.16 2.009,-0.107 4.021,-0.2 6.029,-0.328 -0.39,0.742 -0.808,1.467 -1.275,2.157 -2.287,0.17 -4.566,0.313 -6.864,0.312 -0.096,0 -0.096,0.149 0,0.15 2.247,0.019 4.503,-0.044 6.741,-0.275 -0.459,0.663 -0.941,1.31 -1.467,1.92 -2.458,-0.027 -4.929,0.123 -7.385,0.194 -0.085,0.003 -0.086,0.135 0,0.133 2.412,-0.051 4.843,-0.029 7.253,-0.17 -0.509,0.578 -1.045,1.131 -1.61,1.655 -3.012,0.301 -5.983,0.467 -9.019,0.274 -0.094,-0.006 -0.093,0.139 0,0.146 2.939,0.199 5.908,0.166 8.829,-0.248 -0.592,0.537 -1.209,1.048 -1.856,1.522 -4.626,0.579 -9.259,0.858 -13.924,0.84 -0.072,0 -0.072,0.111 0,0.112 4.556,0.069 9.085,-0.185 13.605,-0.723 -1.015,0.719 -2.083,1.369 -3.209,1.921 -0.016,-0.011 -0.032,-0.022 -0.057,-0.02 -4.289,0.366 -8.568,0.472 -12.868,0.596 -0.071,0.002 -0.071,0.108 0,0.11 4.151,0.124 8.324,-0.115 12.462,-0.459 -3.01,1.395 -6.364,2.173 -9.871,2.182 -0.329,0.001 -0.537,0.179 -0.641,0.408 C 11.644,46.503 2.272,37.267 1.552,24.79 0.748,10.869 11.55,0.404 25.509,1.535 28.214,1.754 30.831,2.482 33.264,3.603 28.9,3.729 24.536,3.88 20.173,4.021 c -0.108,0.004 -0.109,0.171 0,0.169 4.531,-0.114 9.062,-0.218 13.593,-0.351 1.433,0.7 2.8,1.534 4.074,2.494 -4.624,0.021 -9.253,0.197 -13.873,0.309 -0.097,0.002 -0.098,0.153 0,0.152 4.712,-0.069 9.435,-0.07 14.146,-0.239 1.024,0.794 1.998,1.653 2.887,2.593 -3.567,0 -7.141,0.144 -10.704,0.218 -0.103,0.002 -0.103,0.162 0,0.16 3.632,-0.05 7.277,-0.027 10.909,-0.158 0.725,0.784 1.405,1.608 2.022,2.477 -0.679,-0.113 -1.753,0.021 -2.114,0.016 -2.667,-0.038 -5.353,-0.135 -7.995,0.28 -0.053,0.008 -0.04,0.095 0.013,0.093 0.18,-0.006 0.359,-0.013 0.538,-0.019 0.05,-0.002 0.05,-0.078 0,-0.078 2.246,-0.01 4.486,-0.108 6.739,-0.069 0.8,0.014 2.232,0.327 3.018,0.061 1.111,1.613 2.038,3.349 2.714,5.189 -2.32,-0.187 -4.666,-0.19 -6.989,-0.152 -0.083,0.001 -0.083,0.129 0,0.129 2.36,-0.006 4.708,0.12 7.063,0.209 0.232,0.648 0.441,1.304 0.611,1.973 -2.495,0.002 -4.974,0.047 -7.469,-0.102 -0.069,-0.004 -0.069,0.103 0,0.108 2.484,0.169 5.007,0.285 7.496,0.124 0.312,1.256 0.526,2.543 0.605,3.858 -2.205,-0.043 -4.415,0.007 -6.62,0.018 -0.1,0.001 -0.101,0.156 0,0.156 2.207,0.011 4.419,0.061 6.626,0.018 0.015,0.298 0.028,0.596 0.031,0.896 0.003,0.419 -0.02,0.83 -0.042,1.241 -2.064,-0.027 -4.131,0.006 -6.193,0.017 -0.091,0 -0.091,0.138 -10e-4,0.139 z"
     style="fill:#1d1d1b" /><path
     inkscape:connector-curvature="0"
     id="path11"
     d="m 44.209,14.421 c -2.803,-0.207 -5.626,-0.281 -8.435,-0.373 -0.076,-0.003 -0.075,0.114 0,0.118 2.806,0.167 5.624,0.353 8.435,0.405 0.098,10e-4 0.096,-0.143 0,-0.15 z"
     style="fill:#1d1d1b" /><g
     id="g13" /><g
     id="g15" /><g
     id="g17" /><g
     id="g19" /><g
     id="g21" /><g
     id="g23" /><g
     id="g25" /><g
     id="g27" /><g
     id="g29" /><g
     id="g31" /><g
     id="g33" /><g
     id="g35" /><g
     id="g37" /><g
     id="g39" /><g
     id="g41" /><path
     inkscape:connector-curvature="0"
     id="path5-6"
     d="m 30.942927,15.356611 c -9.084522,-7.5456937 -21.7619127,4.588128 -15.07722,14.186122 -1.005912,1.29997 -1.662007,2.822395 -2.147015,4.393481 -0.132135,0.427916 0.281075,0.73997 0.66297,0.670453 1.516888,-0.276523 3.059745,-0.496661 4.56212,-0.848881 0.02444,0.02703 0.05118,0.05329 0.08172,0.07492 0.206224,0.148303 0.427723,0.220909 0.65304,0.231723 0.0031,0.0016 0.0046,0.0031 0.0077,0.0047 5.053238,1.567225 10.735837,0.478123 13.77725,-4.238998 2.982602,-4.624431 1.649023,-11.009963 -2.520508,-14.47346 z m 1.086874,14.814866 c -3.038358,3.543055 -7.856347,4.065205 -12.120589,3.081152 -0.109985,-0.02549 -0.202403,-0.0053 -0.281075,0.03399 -0.08096,-0.06333 -0.160395,-0.126675 -0.251286,-0.162979 -0.0084,-0.0031 -0.01757,-0.0023 -0.02597,-0.0047 -0.05118,-0.197737 -0.198586,-0.359943 -0.440708,-0.333682 -1.296916,0.142896 -2.589249,0.383117 -3.878527,0.608662 0.432306,-1.26444 0.948627,-2.49103 1.416068,-3.745427 0.01528,-0.04094 0.01528,-0.08033 0.0084,-0.118179 0.0107,-0.06025 0.0077,-0.126676 -0.02597,-0.19851 -2.029391,-4.271439 -2.15618,-9.221829 1.50314,-12.692277 3.438583,-3.261124 8.706445,-3.398614 12.325284,-0.390068 4.078639,3.391661 5.400761,9.68991 1.771229,13.921957 z"
     style="fill:#1d1d1b" /><path
     inkscape:connector-curvature="0"
     id="path33"
     d="m 31.183811,26.440211 -0.177921,-0.08562 c -0.245019,-0.12158 -2.055767,-1.007865 -2.416434,-1.139455 -0.282455,-0.101193 -0.809183,-0.290611 -1.219523,0.315815 -0.204238,0.307661 -0.819933,1.030107 -1.07051,1.314044 -0.07413,0.08377 -0.09453,0.106014 -0.309514,-0.0015 -0.06041,-0.03003 -0.142709,-0.06561 -0.243902,-0.108981 -0.490403,-0.210914 -1.403005,-0.602718 -2.473517,-1.549422 -0.153459,-0.135667 -0.388097,-0.121212 -0.523392,0.03225 -0.135669,0.15309 -0.121584,0.387355 0.03188,0.523023 1.159843,1.025659 2.181053,1.464538 2.672198,1.675452 0.08637,0.03706 0.156797,0.06709 0.206463,0.09156 0.180152,0.08933 0.726897,0.363633 1.196542,-0.173105 0.0083,-0.0093 0.843286,-0.959309 1.129447,-1.390774 0.086,-0.12677 0.086,-0.127142 0.351029,-0.03113 0.281713,0.102676 1.890073,0.883318 2.339706,1.106465 l 0.186076,0.09008 c 0.12121,0.0582 0.268737,0.128995 0.316186,0.162356 0.02817,0.16458 0.0046,0.701318 -0.222405,1.33406 -0.224258,0.623847 -1.46565,1.347035 -2.032412,1.397074 -0.136408,0.01223 -0.24761,0.03928 -0.346213,0.06264 -0.372528,0.09045 -0.837725,0.201647 -3.661899,-0.901481 -2.036119,-0.796205 -4.058524,-2.559137 -5.694314,-4.964449 -0.04262,-0.06264 -0.07191,-0.104902 -0.08748,-0.125659 -0.315446,-0.414785 -1.344811,-1.881918 -1.344811,-3.345714 0,-1.441185 0.707619,-2.190691 1.047899,-2.550988 l 0.07154,-0.07635 c 0.259472,-0.282084 0.544893,-0.31248 0.655353,-0.31248 0.111944,0 0.223518,0.0074 0.331384,0.01446 0.152348,0.0096 0.285791,0.02002 0.436284,0.01004 0.113057,-0.0081 0.187934,-0.01186 0.340652,0.3514 0.09971,0.237232 0.2465,0.59308 0.4007,0.965238 0.373269,0.903336 0.622364,1.50383 0.681671,1.621705 0.07006,0.138632 0.06487,0.200164 0.02928,0.270963 l -0.05152,0.103418 c -0.08303,0.168657 -0.128623,0.261326 -0.243904,0.394398 -0.06487,0.0745 -0.131219,0.154571 -0.19757,0.234267 -0.107869,0.129736 -0.21425,0.259101 -0.305436,0.349916 -0.16977,0.166434 -0.567133,0.555643 -0.212768,1.156138 0.10416,0.176441 0.331383,0.234266 0.507455,0.131218 0.176812,-0.103788 0.235379,-0.331013 0.131219,-0.507454 -0.05931,-0.100821 -0.05931,-0.100821 0.09563,-0.2528 0.113057,-0.113056 0.23575,-0.260585 0.354365,-0.403666 0.06264,-0.07488 0.12529,-0.150865 0.187192,-0.221664 0.178295,-0.206095 0.257248,-0.366968 0.348806,-0.553047 l 0.04856,-0.09822 c 0.222049,-0.440382 0.03263,-0.815506 -0.02927,-0.937457 -0.05078,-0.101563 -0.402184,-0.951153 -0.65869,-1.571663 C 21.603351,18.471842 21.455822,18.11488 21.35574,17.876537 21.040666,17.12592 20.634778,17.04919 20.283007,17.072172 l -0.05338,0.0026 c -0.09045,0 -0.18682,-0.0063 -0.286532,-0.01297 -0.123435,-0.0081 -0.251317,-0.01594 -0.379201,-0.01594 -0.20869,0 -0.742832,0.05375 -1.200617,0.551564 l -0.06525,0.06969 c -0.374013,0.396251 -1.250287,1.324052 -1.250287,3.059924 0,1.649133 1.046415,3.203004 1.496043,3.793861 0.01186,0.01594 0.03336,0.04819 0.06487,0.09453 1.719192,2.527634 3.863177,4.387683 6.03756,5.238011 2.09283,0.81734 3.001728,1.010461 3.535498,1.010461 0.241682,0 0.406631,-0.03966 0.56899,-0.07858 0.07636,-0.01853 0.150492,-0.03744 0.239083,-0.04522 0.720592,-0.06375 2.303751,-0.88332 2.664413,-1.884514 0.283202,-0.788797 0.358074,-1.649135 0.168658,-1.962355 -0.128994,-0.208319 -0.342874,-0.310996 -0.639044,-0.452966 z" /><path
     inkscape:connector-curvature="0"
     id="path11-7"
     d="m 21.090141,18.645807 c -0.399434,-0.09996 -1.132857,-0.01303 -1.817405,0.04784 -0.01724,9.2e-4 -0.305049,0.164092 -0.290571,0.16462 0.498896,0.04396 0.954906,0.113614 1.738612,-0.0032 0.02931,-0.0052 0.383272,-0.205964 0.369368,-0.209262 z"
     style="fill:#1d1d1b" /><path
     inkscape:connector-curvature="0"
     id="path11-7-5"
     d="m 21.246358,19.521398 c -0.399434,-0.09996 -1.132857,-0.01303 -1.817405,0.04784 -0.01724,9.2e-4 -0.305049,0.164092 -0.290571,0.16462 0.498896,0.04396 0.954906,0.113614 1.738612,-0.0032 0.02931,-0.0052 0.383272,-0.205964 0.369368,-0.209262 z"
     style="fill:#1d1d1b" /><path
     inkscape:connector-curvature="0"
     id="path11-7-5-3"
     d="m 21.727127,20.29063 c -0.399434,-0.09996 -1.132857,-0.01303 -1.817405,0.04784 -0.01724,9.2e-4 -0.305049,0.164092 -0.290571,0.16462 0.498896,0.04396 0.954906,0.113614 1.738612,-0.0032 0.02931,-0.0052 0.383272,-0.205964 0.369368,-0.209262 z"
     style="fill:#1d1d1b" /></svg>