<?xml version="1.0" encoding="UTF-8" standalone="no"?>
<!-- Created with Inkscape (http://www.inkscape.org/) -->

<svg
   xmlns:dc="http://purl.org/dc/elements/1.1/"
   xmlns:cc="http://creativecommons.org/ns#"
   xmlns:rdf="http://www.w3.org/1999/02/22-rdf-syntax-ns#"
   xmlns:svg="http://www.w3.org/2000/svg"
   xmlns="http://www.w3.org/2000/svg"
   xmlns:sodipodi="http://sodipodi.sourceforge.net/DTD/sodipodi-0.dtd"
   xmlns:inkscape="http://www.inkscape.org/namespaces/inkscape"
   width="32"
   height="32"
   id="svg3483"
   version="1.1"
   inkscape:version="0.91 r13725"
   viewBox="0 0 32 32"
   sodipodi:docname="arte-gastronomia.svg">
  <defs
     id="defs3485" />
  <sodipodi:namedview
     id="base"
     pagecolor="#ffffff"
     bordercolor="#666666"
     borderopacity="1.0"
     inkscape:pageopacity="0.0"
     inkscape:pageshadow="2"
     inkscape:zoom="11.197802"
     inkscape:cx="16"
     inkscape:cy="16"
     inkscape:current-layer="layer1"
     showgrid="true"
     inkscape:grid-bbox="true"
     inkscape:document-units="px"
     inkscape:window-width="1366"
     inkscape:window-height="704"
     inkscape:window-x="0"
     inkscape:window-y="27"
     inkscape:window-maximized="1" />
  <metadata
     id="metadata3488">
    <rdf:RDF>
      <cc:Work
         rdf:about="">
        <dc:format>image/svg+xml</dc:format>
        <dc:type
           rdf:resource="http://purl.org/dc/dcmitype/StillImage" />
        <dc:title></dc:title>
      </cc:Work>
    </rdf:RDF>
  </metadata>
  <g
     id="layer1"
     inkscape:label="Layer 1"
     inkscape:groupmode="layer">
    <g
       id="g3"
       transform="matrix(0.15226713,0,0,0.15226713,0.07470594,0.01483182)">
      <path
         d="m 59.971,20.99 c -10.794,6.177 -19.966,15.539 -24.283,26.695 -0.142,0.143 -0.22,0.334 -0.224,0.54 -2.581,6.963 -3.269,14.61 -1.257,22.62 0.606,2.413 1.636,4.909 2.854,7.45 0.025,0.052 0.034,0.104 0.073,0.147 1.998,4.144 4.484,8.403 6.463,12.62 -0.255,0.01 -0.511,0.017 -0.766,0.026 -0.62,0.023 -0.625,0.981 0,0.967 0.4,-0.009 0.799,-0.022 1.199,-0.031 3.928,8.728 5.328,17.212 -4.837,24 -8.518,5.688 -22.402,-4.219 -32.89,-0.896 -0.282,-0.014 -0.561,0.071 -0.803,0.28 -0.186,0.072 -0.379,0.115 -0.563,0.196 -0.748,0.334 -0.896,1.104 -0.699,1.792 -20.814,35.791 40.431,68.679 66.908,76.872 43.187,13.364 97.046,10.477 124.024,-30.884 C 249.375,80.276 145.461,-27.934 59.971,20.99 Z m 94.51,170.205 c -27.136,10.715 -58.067,7.583 -85.294,-1.305 -4.053,-1.323 -8.904,-3.227 -14.102,-5.617 5.845,0.207 11.671,0.655 17.503,1.29 0.574,0.062 0.56,-0.822 0,-0.893 -6.417,-0.811 -12.857,-1.183 -19.313,-1.242 -4.183,-1.986 -8.556,-4.279 -12.901,-6.84 7.872,0.254 15.75,0.505 23.621,0.471 0.734,-0.003 0.726,-1.099 0,-1.134 -8.565,-0.417 -17.153,-0.502 -25.732,-0.607 -4.298,-2.628 -8.526,-5.518 -12.483,-8.625 4.557,0.069 9.101,0.386 13.615,1.069 0.67,0.102 0.978,-0.898 0.287,-1.04 -5.187,-1.063 -10.353,-1.482 -15.623,-1.436 -4.032,-3.305 -7.72,-6.846 -10.841,-10.576 5.686,0.04 11.374,0.092 17.06,0.023 0.885,-0.011 0.887,-1.365 0,-1.376 -6.038,-0.073 -12.077,-0.01 -18.116,0.031 -2.818,-3.566 -5.079,-7.302 -6.614,-11.167 7.801,0.111 15.606,0.101 23.407,-0.001 0.945,-0.012 0.947,-1.456 0,-1.469 -7.986,-0.105 -15.976,-0.118 -23.962,0.003 -1.342,-3.893 -1.881,-7.916 -1.48,-12.03 15.315,0.013 30.633,-0.398 45.937,-0.943 0.977,-0.035 0.985,-1.544 0,-1.525 -15.284,0.293 -30.574,0.723 -45.84,1.571 0.405,-3.074 1.329,-6.195 2.921,-9.356 11.367,-4.255 26.439,6.126 38.058,0.414 0.114,0.066 0.241,0.12 0.399,0.095 10.263,-1.6 20.524,-2.168 30.902,-1.953 0.839,0.017 0.836,-1.272 0,-1.301 -9.763,-0.348 -19.434,0.34 -29.074,1.804 0.996,-0.711 1.971,-1.516 2.899,-2.539 6.309,-6.955 2.468,-15.462 -1.642,-23.074 8.172,-0.189 16.344,-0.369 24.514,-0.642 0.775,-0.026 0.78,-1.23 0,-1.208 -8.354,0.227 -16.704,0.547 -25.054,0.86 -1.143,-2.092 -2.274,-4.111 -3.179,-5.996 -0.994,-2.067 -1.823,-4.121 -2.573,-6.166 5.64,0.185 11.28,0.381 16.921,0.514 0.767,0.018 0.764,-1.16 0,-1.19 -5.788,-0.225 -11.578,-0.386 -17.368,-0.558 -1.626,-4.733 -2.562,-9.386 -2.827,-13.906 4.969,0.019 9.939,0.055 14.907,-0.007 1.029,-0.013 1.031,-1.586 0,-1.599 -4.991,-0.063 -9.983,-0.027 -14.975,-0.008 -0.098,-4.432 0.572,-8.7 1.874,-12.79 4.586,0.174 9.168,0.32 13.763,0.343 0.821,0.004 0.804,-1.208 0,-1.264 -4.422,-0.306 -8.84,-0.496 -13.264,-0.659 1.403,-3.809 3.471,-7.424 6.178,-10.813 15.428,0.11 30.77,0.881 46.086,2.815 0.669,0.084 0.834,-1.085 0.16,-1.187 -15.108,-2.272 -30.243,-3.275 -45.514,-2.564 3.056,-3.612 6.894,-6.942 11.571,-9.924 0.855,-0.545 1.752,-1.034 2.635,-1.543 10.2,-0.029 20.333,0.411 30.485,1.521 0.99,0.108 0.971,-1.425 0,-1.543 -9.243,-1.125 -18.528,-1.622 -27.83,-1.456 5.03,-2.62 10.421,-4.673 15.949,-6.216 0.033,0.315 0.232,0.604 0.652,0.591 12.809,-0.414 25.434,0.117 38.14,1.874 1.011,0.14 1.464,-1.398 0.43,-1.56 -11.765,-1.839 -23.606,-2.487 -35.487,-1.857 4.824,-1.133 9.714,-1.901 14.54,-2.278 28.633,-2.236 57.221,8.449 77.245,29.018 42.048,43.19 40.017,124.357 -21.571,148.676 z"
         id="path5"
         inkscape:connector-curvature="0" />
      <path
         d="M 102.08,56.273 C 97.786,44.791 84.347,42.608 73.596,44.502 73.387,44.338 73.138,44.236 72.84,44.319 63.043,47.031 58.417,56.614 62.766,66.045 67.308,75.894 79.953,81.386 90.267,78.23 99.232,75.486 105.493,65.397 102.08,56.273 Z M 89.39,75.044 C 72.678,80.526 54.536,57.84 70.747,47.556 c 0.263,0.359 0.658,0.599 1.209,0.525 8.187,-1.098 17.357,-1.835 23.701,4.665 7.226,7.403 3.224,19.184 -6.267,22.298 z"
         id="path7"
         inkscape:connector-curvature="0" />
      <path
         d="m 78.91,146.814 c -6.545,-8.138 -17.588,-5.454 -25.312,-0.918 -0.061,0.036 -0.09,0.087 -0.142,0.127 -2.651,-4.944 -8.851,-7.029 -13.52,-3.106 -5.215,4.382 -3.634,11.59 0.521,16.113 -0.588,6.316 2.618,15.099 10.147,14.633 4.786,-0.296 6.455,-6.124 11.159,-7.222 4.97,-1.161 9.093,3.122 14.125,-0.095 6.197,-3.964 7.547,-13.905 3.022,-19.532 z m -8.344,18.575 c -2.246,0.482 -5.318,-1.09 -7.734,-1.228 -2.786,-0.159 -4.358,0.229 -6.502,1.99 -3.223,2.645 -1.66,3.985 -6.825,3.451 -5.541,-0.573 -7.36,-4.688 -7.646,-9.531 0.678,-0.023 1.289,-0.743 0.869,-1.485 -2.16,-3.819 -5.495,-8.237 -2.07,-12.46 3.336,-4.113 9.493,-3.058 11.934,1.424 0.137,0.251 0.381,0.316 0.629,0.313 0.37,0.533 1.049,0.845 1.776,0.425 6.644,-3.84 18.141,-7.001 22.852,1.779 3.403,6.343 -0.701,13.908 -7.283,15.322 z"
         id="path9"
         inkscape:connector-curvature="0" />
      <path
         d="m 146.948,166.128 c -3.104,-2.315 -0.942,-6.346 -3.068,-9.644 -1.355,-2.102 -3.971,-3.145 -6.391,-3.176 -5.446,-0.07 -11.613,5.975 -9.9,11.609 0.297,0.977 1.67,0.966 1.972,0 1.102,-3.522 1.878,-7.303 5.981,-8.519 1.609,-0.477 3.339,-0.328 4.731,0.609 2.088,1.405 1.512,3.296 1.799,5.397 0.285,2.094 1.337,3.675 2.824,4.748 0.037,0.26 0.163,0.504 0.485,0.666 0.821,0.413 4.992,2.374 5.099,2.461 5.297,4.315 1.091,13.84 -4.72,14.337 -4.854,0.415 -7.175,-3.445 -11.161,-4.294 -8.368,-1.783 -8.815,11.339 -16.271,11.667 -0.037,0.002 -0.049,0.03 -0.083,0.036 -3.912,0.064 -8.688,-1.335 -6.677,-6.25 0.542,-1.326 1.567,-2.436 2.114,-3.775 0.749,-1.836 1.128,-3.586 0.076,-5.424 -0.729,-1.272 -1.705,-1.347 -2.646,-2.294 -2.672,-2.688 -4.481,-5.348 -1.067,-8.779 4.782,-4.806 12.669,-2.491 16.837,1.661 0.548,0.546 1.539,-0.168 1.095,-0.845 -3.027,-4.615 -8.557,-6.946 -14.025,-5.749 -5.065,1.109 -10.421,6.29 -8.44,11.895 1.125,3.182 6.136,3.994 6.014,7.69 -0.094,2.852 -3.554,5.169 -3.652,8.314 -0.193,6.156 6.806,6.731 11.288,5.762 0.507,-0.109 0.705,-0.527 0.74,-0.962 1.691,-0.068 3.066,-0.632 4.599,-1.902 0.943,-0.782 1.566,-1.824 2.327,-2.753 2.875,-3.506 4.772,-5.476 9.764,-3.687 2.263,0.811 3.179,2.658 5.895,2.885 2.442,0.204 4.906,-0.693 6.975,-1.897 10.301,-5.991 8.548,-17.165 -2.514,-19.787 z"
         id="path11"
         inkscape:connector-curvature="0" />
      <path
         d="m 196.863,121.712 c -2.151,-2.617 -5.437,-3.771 -7.265,-6.826 -1.25,-2.089 -1.715,-4.499 -2,-6.934 0.562,0.087 1.217,-0.215 1.191,-0.898 -0.231,-6.124 -6.247,-10.557 -12.163,-8.335 -2.5,0.939 -4.449,2.893 -5.4,5.368 -1.705,4.439 0.741,12.5 -4.525,14.706 -5.625,-0.278 -12.786,0.817 -13.992,7.387 -0.458,2.498 0.242,4.469 2.002,6.227 1.465,1.463 3.611,2.022 5.042,3.55 2.536,2.707 1.799,4.996 2.317,7.884 1.069,5.97 6.414,10.641 12.652,9.466 6.15,-1.158 8.848,-7.523 8.862,-13.232 0.001,-0.297 -0.125,-0.522 -0.283,-0.71 6.864,1.164 14.949,-1.995 16.062,-9.659 0.455,-3.125 -0.521,-5.586 -2.5,-7.994 z m -13.846,15.167 c -1.136,-0.005 -1.499,1.441 -0.787,2.092 -0.442,0.042 -0.865,0.249 -1.001,0.786 -1.396,5.526 -4.62,14.228 -12.243,9.911 -5.217,-2.954 -3.21,-7.905 -5.035,-12.366 -0.784,-1.918 -2.156,-3.353 -3.78,-4.593 -2.77,-2.114 -2.532,-0.647 -2.75,-5.54 -1.378,-3.719 0.061,-5.744 4.317,-6.076 1.999,-0.317 4.007,-0.546 6.026,-0.687 0.519,-0.044 0.758,-0.437 0.74,-0.819 2.48,-1.409 3.709,-4.499 4.122,-7.465 0.529,-3.801 0.067,-8.231 3.971,-10.478 3.9,-2.245 7.644,-0.197 9.387,3.244 -0.566,4.537 -0.387,9.236 2.487,13.03 1.718,2.269 4.418,3.509 6.215,5.705 7.668,9.373 -5.368,13.287 -11.669,13.256 z"
         id="path13"
         inkscape:connector-curvature="0" />
      <path
         d="m 73.25,103.852 c -6.612,-0.015 -13.221,0.03 -19.832,0.093 -0.67,0.006 -0.671,1.035 0,1.041 6.611,0.063 13.22,0.108 19.832,0.093 0.789,-0.002 0.791,-1.226 0,-1.227 z"
         id="path15"
         inkscape:connector-curvature="0" />
    </g>
  </g>
</svg>
