<?xml version="1.0" encoding="iso-8859-1"?>
<!-- Generator: Adobe Illustrator 18.0.0, SVG Export Plug-In . SVG Version: 6.00 Build 0)  -->
<!DOCTYPE svg PUBLIC "-//W3C//DTD SVG 1.1//EN" "http://www.w3.org/Graphics/SVG/1.1/DTD/svg11.dtd">
<svg version="1.1" id="Capa_1" xmlns="http://www.w3.org/2000/svg" xmlns:xlink="http://www.w3.org/1999/xlink" x="0px" y="0px"
	 viewBox="0 0 283.156 283.156" style="enable-background:new 0 0 283.156 283.156;" xml:space="preserve">
<g>
	<path d="M234.879,84.485c3.158-43.554-31.748-81.757-75.016-84.326c-20.798-1.234-40.743,4.741-56.353,16.064
		c-0.742,0.001-1.493-0.018-2.226,0c-0.676,0.017-0.663,0.992,0,1.041c0.249,0.018,0.492,0.058,0.741,0.078
		C84.899,30.377,73.321,50.004,72.191,73.681c-0.499,10.461,0.969,20.959,4.112,30.767c-0.101,0.268-0.031,0.557,0.22,0.72
		c4.342,13.156,11.736,25.015,21.589,33.751c-17.358,34.801-30.493,72.376-43.18,109.384c-0.438,0.035-0.542,0.55-0.29,0.845
		c-2.16,6.303-4.312,12.592-6.466,18.844c-0.496,1.44,1.01,2.262,2.141,1.866c0.2,0.179,0.45,0.3,0.774,0.218
		c16.124-4.093,33.209-14.667,45.972-25.295c1.421,2.482,1.994,6.476,2.743,8.686c0.977,2.884,1.985,5.758,2.997,8.63
		c2.362,6.708,4.694,13.431,7.243,20.069c0.528,1.375,2.365,1.205,2.803,0.173c0.139-0.06,0.275-0.135,0.353-0.305
		c13.12-28.731,24.365-58.497,35.866-87.929c3.237,28.571,6.921,57.113,10.619,85.589c0.139,1.069,1.148,1.53,1.968,1.399
		c0.232,0.604,1.151,0.877,1.637,0.174c8.543-12.357,16.151-25.617,22.88-39.041c6.08,3.986,12.199,7.907,18.362,11.763
		c2.959,1.851,5.92,3.697,8.892,5.528c1.929,1.188,3.51,2.141,5.118,2.902c1.305,1.283,2.612,2.566,3.917,3.85
		c0.18,0.177,0.375,0.27,0.571,0.325c0.124,0.225,0.33,0.431,0.634,0.596c0.172,0.094,0.345,0.188,0.518,0.282
		c0.593,0.323,1.529,0.309,1.997-0.258c0.152-0.184,0.305-0.369,0.457-0.553c0.252-0.305,0.377-0.635,0.426-0.967
		c0.332-0.522,0.307-1.273-0.38-1.754c-0.041-0.029-0.085-0.055-0.126-0.084c-7.388-40.506-15.225-81.541-25.593-121.385
		C219.839,130.153,233.06,109.578,234.879,84.485z M148.179,189.354c-12.294,29.936-25.138,59.923-35.854,90.469
		c-2.95-8.608-6.148-17.141-9.368-25.649c-1.137-3.004-2.003-9.098-4.981-11.272c-0.3-0.726-1.176-1.269-1.965-0.754
		c-7.386,4.812-14.471,9.948-22.155,14.309c-7.203,4.089-14.936,7.206-22.13,11.251c1.057-3.008,2.161-6.002,3.247-9.002
		c3.757,0.05,7.516,0.047,11.272,0c0.849-0.011,0.851-1.31,0-1.32c-3.597-0.045-7.197-0.041-10.796,0
		c0.944-2.596,1.919-5.183,2.88-7.774c4.399,0.381,8.797,0.773,13.2,1.096c0.707,0.052,0.696-1.034,0-1.097
		c-4.269-0.386-8.543-0.705-12.816-1.036c1.018-2.736,2.057-5.465,3.09-8.197c0.046,0.218,0.185,0.421,0.47,0.438
		c5.607,0.342,11.137,0.128,16.69-0.717c0.771-0.117,0.436-1.268-0.321-1.165c-5.434,0.738-10.888,1.036-16.369,0.822
		c-0.123-0.005-0.197,0.054-0.275,0.106c1.362-3.599,2.762-7.188,4.143-10.782c8.41,0.069,16.816,0.143,25.225-0.049
		c0.945-0.022,0.947-1.447,0-1.469c-8.208-0.188-16.413-0.12-24.622-0.053c1.409-3.662,2.83-7.321,4.247-10.98
		c5.293,0.765,10.622,0.776,15.918-0.1c0.625-0.103,0.486-1.17-0.151-1.114c-5.141,0.452-10.19,0.439-15.29-0.019
		c0.984-2.54,1.964-5.081,2.947-7.621c5.88,0.107,11.733,0.475,17.611,0.76c0.83,0.04,0.786-1.169,0-1.264
		c-5.69-0.692-11.46-0.743-17.195-0.573c1.012-2.614,2.014-5.23,3.022-7.845c0.094,0.052,0.165,0.131,0.297,0.134
		c7.92,0.176,15.87,0.599,23.792,0.424c0.938-0.021,0.928-1.398,0-1.45c-7.846-0.44-15.739-0.297-23.596-0.386
		c1.128-2.928,2.242-5.86,3.361-8.79c11.589,0.535,23.176,1.338,34.779,1.405c1.002,0.006,0.983-1.478,0-1.543
		c-11.416-0.759-22.869-0.808-34.305-1.1c1.105-2.9,2.161-5.815,3.253-8.719c6.379,0.908,12.745,1.84,19.162,2.438
		c0.59,0.055,0.729-0.937,0.141-1.041c-6.247-1.107-12.531-1.887-18.822-2.689c1.824-4.863,3.607-9.738,5.382-14.616
		c8.878,0.331,17.656,1.113,26.513,2.006c0.733,0.074,0.91-1.176,0.175-1.296c-8.643-1.417-17.492-1.894-26.267-1.854
		c1.044-2.879,2.008-5.781,3.029-8.667c5.259,0.283,10.528,0.633,15.79,0.705c1,0.014,0.985-1.484,0-1.543
		c-5.1-0.307-10.225-0.354-15.338-0.453c1.38-3.92,2.805-7.827,4.113-11.768c11.997,10.127,27.444,15.713,45.327,13.622
		c0.063,0.044,0.13,0.083,0.191,0.127c1.095,11.743,2.332,23.483,3.637,35.219C148.352,189.038,148.251,189.179,148.179,189.354z
		 M222.81,260.842c-4.336-3.146-9.98-5.601-14.103-8.066c-7.272-4.351-14.572-8.648-21.939-12.836
		c-0.52-0.295-0.996-0.145-1.307,0.178c-0.641-0.339-1.467-0.272-1.92,0.565c-6.894,12.735-13.977,25.358-20.934,38.055
		c-4.717-41.569-9.441-83.282-15.64-124.659c19.001,2.839,37.327-1.294,52.315-10.519
		C205.327,182.796,213.927,222.113,222.81,260.842z M149.556,152.397c0.127-0.52-0.28-1.21-0.997-1.111
		c-13.047,1.809-24.615-0.208-34.541-4.88c3.47,0.354,6.94,0.693,10.422,0.937c0.746,0.052,0.728-1.081,0-1.153
		c-4.281-0.422-8.568-0.708-12.859-0.985c-3.059-1.621-5.971-3.469-8.682-5.582c4.906,1.177,9.89,2.064,14.897,2.666
		c0.549,0.066,0.673-0.859,0.131-0.968c-5.155-1.036-10.398-1.786-15.643-2.189c-2.874-2.3-5.525-4.879-7.979-7.659
		c4.966,0.392,9.93,0.815,14.907,1.037c0.832,0.037,0.814-1.217,0-1.283c-5.272-0.423-10.557-0.621-15.84-0.868
		c-1.965-2.324-3.779-4.798-5.45-7.386c2.891-0.053,5.737,0.178,8.596,0.719c0.64,0.121,0.91-0.796,0.272-0.986
		c-3.117-0.93-6.314-1.149-9.538-0.829c-3.171-5.099-5.698-10.676-7.694-16.498c3.278,0.106,6.577,0.242,9.827,0.023
		c0.932-0.063,0.934-1.387,0-1.45c-3.402-0.229-6.858-0.07-10.286,0.036c-1.595-4.927-2.76-10.038-3.483-15.237
		c3.23,0.1,6.803,0.616,9.982,0.054c0.648-0.115,0.648-1.194,0-1.309c-3.218-0.569-6.839-0.032-10.097,0.06
		c-0.014,0-0.018,0.013-0.031,0.014c-0.488-3.887-0.688-7.82-0.661-11.758c4.148,1.003,8.529,1.605,12.749,0.997
		c0.683-0.099,0.487-1.153-0.158-1.169C83.11,75.535,79,75.493,74.792,74.734c0.085-4.437,0.502-8.877,1.291-13.268
		c0.241-1.342,0.619-2.617,0.94-3.92c0.107,0.116,0.257,0.2,0.462,0.202c4.131,0.045,8.453,0.498,12.561,0.056
		c0.931-0.1,0.933-1.35,0-1.45c-4.108-0.442-8.428,0.011-12.561,0.056c-0.094,0.001-0.138,0.064-0.211,0.092
		c0.677-2.568,1.544-5.036,2.512-7.444c1.983,0.279,3.965,0.562,5.945,0.86c2.058,0.31,4.211,0.874,6.286,0.652
		c0.731-0.078,0.908-1.042,0.176-1.297c-1.974-0.686-4.193-0.626-6.268-0.787c-1.891-0.146-3.781-0.309-5.67-0.473
		c3.118-7.365,7.576-13.929,12.965-19.648c0.065,0.034,0.095,0.063,0.201,0.111c0.161,0.074,0.338,0.068,0.471-0.061
		c0.068-0.066,0.137-0.132,0.205-0.199c0.191-0.185,0.079-0.467-0.11-0.584c0.844,0.093,3.032,0.631,3.591,0.706
		c1.151,0.155,2.302,0.312,3.453,0.465c2.279,0.304,4.543,0.504,6.836,0.659c0.732,0.05,0.914-1.176,0.176-1.296
		c-3.046-0.498-6.078-0.852-9.15-1.147c-1.106-0.106-2.577-0.47-3.9-0.46c3.29-3.254,6.901-6.198,10.756-8.824
		c4.689,0.5,9.349,1.126,14.045,1.687c0.772,0.092,0.902-1.139,0.181-1.333c-3.872-1.041-7.972-1.545-12.056-1.754
		c3.273-2.08,6.739-3.874,10.293-5.493c5.84,0.498,11.612,1.382,17.443,2.037c0.804,0.09,0.969-1.228,0.19-1.406
		c-4.953-1.131-10.082-1.578-15.187-1.769c5.066-2.119,10.353-3.756,15.745-4.899c7.608,1.672,15.253,2.776,23.057,2.847
		c1.069,0.01,1.06-1.606,0-1.655c-6.626-0.305-13.21-0.827-19.759-1.802c7.591-1.309,15.34-1.653,22.957-0.873
		c38.049,3.897,69.095,36.497,69.221,75.159C232.025,123.567,193.152,156.075,149.556,152.397z"/>
	<path d="M160.218,16.542c-38.913-5.14-69.436,22.987-71.47,62.228c-1.681,32.428,23.475,62.746,56.304,61.854
		c-0.093,0.736,0.307,1.493,1.258,1.407c35.803-3.235,70.114-17.45,70.712-58.147C217.567,46.898,197.527,21.47,160.218,16.542z
		 M149.796,138.901c-33.873,0.461-60.189-25.861-58.62-60.131c0.712-15.541,7.772-32.123,18.358-43.509
		c14.315-15.397,33.561-18.864,53.547-15.423c34.069,5.865,51.796,29.906,51.304,64.046
		C213.834,122.153,182.182,134.818,149.796,138.901z"/>
	<path d="M161.647,35.727c-0.055-0.51-0.558-0.642-0.871-0.424c-0.104-0.099-0.196-0.213-0.343-0.254
		c-6.708-1.872-15.204-1.066-22.102-0.729c-1.079,0.053-1.223,1.285-0.538,1.794c-4.43,8.421-8.929,16.71-14.251,24.626
		c-0.081,0.12-0.068,0.228-0.063,0.336c-0.173-0.111-0.331-0.242-0.505-0.35c-0.618-0.388-1.258,0.483-0.766,0.993
		c1.822,1.889,3.754,3.657,5.714,5.402c1.655,1.474,3.279,3.435,5.407,4.167c0.959,0.33,1.782-0.857,1.291-1.68
		c-1.139-1.91-3.452-3.115-5.211-4.415c-1.694-1.252-3.429-2.442-5.187-3.601c0.139-0.031,0.276-0.093,0.38-0.233
		c5.79-7.823,11.186-16.06,15.358-24.875c6.631,0.506,14.059,1.536,20.473,0.501c-2.58,27.816-0.627,56.587-0.354,84.512
		c-4.898,0.037-9.992-0.468-14.745,0.187c0.154-0.16,0.273-0.368,0.271-0.666c-0.131-19.668,0.163-39.215,1.685-58.833
		c0.068-0.881-0.533-1.331-1.208-1.393c-0.346-0.61-1.028-0.962-1.778-0.421c-1.977,1.43-3.563,3.461-5.15,5.3
		c-1.6,1.855-3.098,3.779-4.527,5.768c-0.703,0.979,0.893,2.219,1.679,1.296c1.516-1.781,3.075-3.529,4.695-5.215
		c1.008-1.049,2.11-2.043,3.177-3.063c-1.484,18.815-1.932,37.725-0.582,56.561c0.056,0.788,0.79,1.04,1.358,0.856
		c-0.879,0.478-0.709,2.027,0.309,2.29c5.3,1.368,11.835,0.243,17.173-0.587c0.878-0.136,0.946-1.237,0.448-1.787
		C162.89,93.356,164.673,64.003,161.647,35.727z"/>
	<path d="M104.588,171.673c-4.019,0.333-7.95-0.027-11.843-1.094c-0.29-0.079-0.409,0.36-0.123,0.448
		c3.915,1.211,7.873,1.707,11.966,1.501C105.139,172.5,105.134,171.628,104.588,171.673z"/>
	<path d="M94.836,113.296c-3.666-0.623-7.687-0.778-11.399-0.69c-0.659,0.016-0.874,1.105-0.163,1.205
		c3.679,0.519,7.693,0.863,11.401,0.672C95.316,114.45,95.543,113.416,94.836,113.296z"/>
	<path d="M88.236,96.757c-3.117-0.606-6.259-1.032-9.422-1.322c-0.664-0.061-0.814,1.037-0.158,1.169
		c3.116,0.624,6.248,1.106,9.41,1.413C88.781,98.087,88.945,96.895,88.236,96.757z"/>
	<path d="M86.908,65.092c-3.527-0.883-7.341-0.919-10.922-0.327c-0.603,0.1-0.439,1.034,0.141,1.041
		c3.569,0.039,7.045,0.326,10.595,0.656C87.512,66.535,87.66,65.28,86.908,65.092z"/>
	<path d="M98.807,38.582c-4.009-0.568-8.02-1.006-12.054-1.36c-0.629-0.055-0.785,1.023-0.151,1.114
		c4.007,0.576,8.012,1.071,12.044,1.433C99.317,39.829,99.483,38.678,98.807,38.582z"/>
</g>
<g>
</g>
<g>
</g>
<g>
</g>
<g>
</g>
<g>
</g>
<g>
</g>
<g>
</g>
<g>
</g>
<g>
</g>
<g>
</g>
<g>
</g>
<g>
</g>
<g>
</g>
<g>
</g>
<g>
</g>
</svg>
