<?xml version="1.0" encoding="iso-8859-1"?>
<!-- Generator: Adobe Illustrator 19.0.0, SVG Export Plug-In . SVG Version: 6.00 Build 0)  -->
<svg version="1.1" id="Layer_1" xmlns="http://www.w3.org/2000/svg" xmlns:xlink="http://www.w3.org/1999/xlink" x="0px" y="0px"
	 viewBox="0 0 291.02 291.02" style="enable-background:new 0 0 291.02 291.02;" xml:space="preserve">
<g>
	<g>
		<g>
			<path d="M257.678,149.516c0-4.404-3.584-7.988-7.988-7.988h-1.696c0.136-2.156,0.224-4.164,0.224-6.036
				c0-50.244-36.276-92.148-84.008-100.968c0.536-0.792,0.924-1.688,0.924-2.716V31.3c0-2.728-2.22-4.948-4.944-4.948h-6.476
				c3.54-2.684,5.864-6.892,5.864-11.668C159.578,6.588,152.994,0,144.894,0c-8.096,0-14.688,6.588-14.688,14.684
				c0,4.776,2.328,8.984,5.868,11.668h-5.24c-2.728,0-4.944,2.22-4.944,4.948v0.508c0,1.024,0.388,1.924,0.924,2.716
				c-47.732,8.816-84.012,50.72-84.012,100.964c0,1.884,0.088,3.908,0.22,6.036H41.33c-4.408,0-7.988,3.584-7.988,7.988
				c0,3.604,2.412,6.62,5.7,7.612c-0.704,1.144-1.132,2.476-1.132,3.916c0,4.14,3.372,7.508,7.512,7.508h48.96
				c-1.352,2.308-0.836,4.848-0.392,6.992l0.24,1.184c0.22,1.192,0.488,2.372,0.752,3.556c0.336,1.48,0.676,2.96,0.908,4.456
				c1.208,7.876-1.016,15.272-3.6,22.784c-0.368,1.06-0.916,2.368-1.544,3.86c-2.572,6.132-6.592,15.776-4.712,24.428l-4.976-2.072
				l-14.884,35.276l55.936,22.008l14.264-34.24l-1.888-0.788c8.916-15.296,40.076-47.56,45.3-52.032
				c5.836-4.996,12.304-9.524,18.56-13.908c2.04-1.424,4.076-2.852,6.088-4.292c2.032-1.452,4.132-2.804,6.236-4.156
				c1.844-1.188,3.684-2.376,5.484-3.628c2.852-1.984,4.016-4.376,3.456-7.108c-0.148-0.728-0.436-1.54-0.968-2.324h26.956
				c4.14,0,7.508-3.368,7.508-7.508c0-1.44-0.428-2.772-1.132-3.916C255.262,156.136,257.678,153.12,257.678,149.516z
				 M134.174,14.68c0-5.912,4.808-10.716,10.72-10.716S155.61,8.772,155.61,14.68s-4.804,10.716-10.716,10.716
				C138.982,25.396,134.174,20.592,134.174,14.68z M129.858,31.296c0-0.532,0.444-0.98,0.976-0.98h29.352
				c0.532,0,0.976,0.448,0.976,0.98v0.508c0,0.532-0.444,0.98-0.976,0.98h-29.352c-0.532,0-0.976-0.448-0.976-0.98V31.296z
				 M145.514,36.752c54.448,0,98.736,44.296,98.736,98.736c0,1.88-0.068,3.832-0.212,6.036H46.978
				c-0.136-2.156-0.204-4.148-0.204-6.036C46.774,81.044,91.066,36.752,145.514,36.752z M119.946,285.904L71.41,266.808
				l11.764-27.888l48.016,20L119.946,285.904z M213.89,174.724c-1.76,1.224-3.568,2.388-5.372,3.548
				c-2.152,1.388-4.304,2.772-6.388,4.264c-2.012,1.436-4.036,2.852-6.06,4.272c-6.332,4.436-12.884,9.02-18.864,14.14
				c-5.544,4.744-37.396,37.676-46.404,53.512l-39.908-16.624c-3.58-7.876,0.648-18.092,3.508-24.916
				c0.664-1.584,1.248-2.976,1.632-4.104c2.644-7.684,5.116-15.916,3.772-24.68c-0.248-1.588-0.6-3.16-0.956-4.732
				c-0.256-1.128-0.516-2.26-0.724-3.396l-0.252-1.268c-0.576-2.764-0.668-3.864,0.576-4.936c0,0,3.032-1.708,8.752-0.628
				c3.724,1.796,5.592,5.036,6.064,10.5c0.132,1.536,0.248,3.076,0.364,4.612c0.188,2.512,0.376,5.028,0.648,7.624
				c1.136,7.512,4.456,12.252,9.868,14.092c13.688,4.656,35.076-11.852,35.26-12.032c10.976-10.532,21.924-18.232,33.312-23.472
				c7.1-2.5,11.044-2.084,18.18-1.34l2.016,0.188c2.456,0.596,2.712,1.848,2.804,2.324
				C215.882,172.44,215.786,173.404,213.89,174.724z M166.606,172.148c-3.408,8.132-6.064,14.48-8.68,17.78
				c-0.404,0.388-0.812,0.744-1.216,1.132c-1.904,1.616-14.872,10.532-25.16,11.668c5.94-5.36,11.188-12.616,15.624-21.62
				c0.776-1.572,1.428-2.944,2.02-4.184c1.572-3.304,2.728-5.668,4.528-8.376h14.16C167.618,169.54,167.214,170.7,166.606,172.148z
				 M168.702,173.028c0.764-1.832,1.236-3.252,1.512-4.476h17.492c-8.512,4.3-16.716,9.896-24.828,16.916
				C164.602,182.124,166.666,177.888,168.702,173.028z M147.146,175.956c-0.584,1.232-1.236,2.592-2.004,4.156
				c-4.812,9.756-10.576,17.356-17.128,22.64c-1.004-0.1-1.98-0.268-2.872-0.604c-3.78-1.416-6.052-4.956-6.928-10.74
				c-0.256-2.468-0.44-4.94-0.624-7.416c-0.116-1.552-0.236-3.104-0.368-4.656c-0.276-3.232-1.06-7.452-4.296-10.784h38.08
				C149.566,170.884,148.526,173.06,147.146,175.956z M245.602,164.584H75.722l3.184-2.672l-1.46-1.74l-5.26,4.412H67.65
				l3.184-2.672l-1.46-1.74l-5.26,4.412h-4.536l3.184-2.672l-1.46-1.74l-5.26,4.412h-4.536l3.184-2.672l-1.46-1.74l-5.26,4.412
				h-2.556c-1.952,0-3.544-1.588-3.544-3.54c0-1.952,1.588-3.54,3.544-3.54h200.18c1.952,0,3.54,1.588,3.54,3.54
				C249.134,162.996,247.554,164.584,245.602,164.584z M249.69,153.532h-4.088H45.422H41.33c-2.216,0-4.02-1.804-4.02-4.016
				c0-2.216,1.804-4.02,4.02-4.02h1.972h204.416h1.968c2.216,0,4.02,1.804,4.02,4.02C253.71,151.728,251.906,153.532,249.69,153.532
				z"/>
			<path d="M144.894,22.572c4.348,0,7.888-3.54,7.888-7.892s-3.54-7.888-7.888-7.888c-4.348,0-7.888,3.54-7.888,7.888
				S140.546,22.572,144.894,22.572z M144.894,9.06c3.096,0,5.62,2.52,5.62,5.62s-2.524,5.62-5.62,5.62s-5.62-2.52-5.62-5.62
				S141.794,9.06,144.894,9.06z"/>
			<path d="M67.73,133.228c-1.616-19.516,4.26-39.66,16.128-55.26l-3.156-2.404c-12.452,16.376-18.62,37.512-16.924,57.992
				L67.73,133.228z"/>
			<path d="M105.726,58.192l-2.08-3.384c-6.036,3.708-11.568,8.152-16.456,13.2l2.852,2.756
				C94.698,65.952,99.97,61.724,105.726,58.192z"/>
			<rect x="227.93" y="129.804" width="7.348" height="3.968"/>
			<rect x="203.246" y="129.804" width="17.14" height="3.968"/>
			<rect x="170.29" y="129.804" width="26.84" height="3.968"/>
			<path d="M91.818,261.148c0.036,0,0.076,0,0.108,0c1.336,0,2.596-0.504,3.568-1.432c0.992-0.952,1.56-2.236,1.584-3.612
				c0.032-1.376-0.48-2.68-1.432-3.672c-0.952-0.996-2.236-1.56-3.612-1.584c-1.408-0.108-2.68,0.48-3.672,1.432
				c-0.996,0.952-1.56,2.236-1.584,3.612C86.714,258.728,88.978,261.092,91.818,261.148z M89.93,253.912
				c0.544-0.52,1.248-0.804,1.996-0.804c0.02,0,0.044,0,0.064,0c0.772,0.016,1.492,0.332,2.024,0.888
				c0.536,0.556,0.82,1.288,0.804,2.06c-0.016,0.768-0.332,1.488-0.892,2.024c-0.556,0.536-1.236,0.812-2.06,0.804
				c-1.588-0.036-2.856-1.356-2.824-2.948C89.058,255.164,89.374,254.448,89.93,253.912z"/>
		</g>
	</g>
</g>
<g>
</g>
<g>
</g>
<g>
</g>
<g>
</g>
<g>
</g>
<g>
</g>
<g>
</g>
<g>
</g>
<g>
</g>
<g>
</g>
<g>
</g>
<g>
</g>
<g>
</g>
<g>
</g>
<g>
</g>
</svg>
