<?xml version="1.0" encoding="iso-8859-1"?>
<!-- Generator: Adobe Illustrator 18.0.0, SVG Export Plug-In . SVG Version: 6.00 Build 0)  -->
<!DOCTYPE svg PUBLIC "-//W3C//DTD SVG 1.1//EN" "http://www.w3.org/Graphics/SVG/1.1/DTD/svg11.dtd">
<svg version="1.1" id="Capa_1" xmlns="http://www.w3.org/2000/svg" xmlns:xlink="http://www.w3.org/1999/xlink" x="0px" y="0px"
	 viewBox="0 0 241.389 241.389" style="enable-background:new 0 0 241.389 241.389;" xml:space="preserve">
<g>
	<path d="M219.746,0.001c-29.733,1.001-59.926,12.653-89.242,17.821C94.989,24.083,59.282,26.897,23.386,29.76
		c-1.094,0.087-1.128,1.74,0,1.729c31.172-0.315,62.328-3.869,93.11-8.652c15.975-2.482,31.881-5.384,47.688-8.782
		c16.273-3.498,32.645-9.031,49.279-10.672C162.603,34.005,110.876,63.673,61.3,96.327c0.032-0.141,0.027-0.293-0.054-0.441
		c-1.616-2.933-3.311-5.807-5.046-8.651c4.152,0.035,8.378-0.202,12.387-1.259c0.703-0.185,0.385-1.151-0.292-1.058
		c-4.253,0.588-8.417,1.22-12.701,1.351c-4.333-7.034-8.948-13.856-13.533-20.702c6.597,0.167,13.217,0.081,19.767-0.729
		c0.703-0.087,0.746-1.173,0-1.134c-6.867,0.361-13.698,0.713-20.571,0.658c-2.245-3.358-4.458-6.74-6.641-10.145
		c8.201-0.476,16.401-0.923,24.583-1.676c0.773-0.071,0.8-1.262,0-1.227c-8.458,0.372-16.892,1.069-25.331,1.726
		c-2.463-3.873-4.815-7.83-7.088-11.846c10.368-0.282,20.734-0.595,31.089-1.216c0.864-0.052,0.881-1.37,0-1.357
		c-10.634,0.152-21.254,0.627-31.876,1.129c-1.108-1.997-2.249-3.971-3.283-6.024c-0.809-1.606-3.026-0.195-2.36,1.379
		c0.769,1.818,1.63,3.629,2.471,5.441c-0.018,0.237,0.078,0.442,0.266,0.585c9.328,19.905,22.801,39.33,37.138,55.543
		c0.073,0.083,0.16,0.098,0.246,0.12c-0.069,0.069-0.15,0.114-0.196,0.199c-0.101,0.065-0.202,0.13-0.303,0.197
		c-0.388,0.256-0.046,0.853,0.366,0.626c0.003-0.002,0.008-0.005,0.011-0.006c0.072,0.11,0.101,0.233,0.245,0.315
		c0.032,0.019,0.066,0.037,0.098,0.056c0.042,0.22,0.183,0.413,0.48,0.395c0.064-0.004,0.128-0.008,0.191-0.012
		c11.228,6.415,23.334,13.367,35.655,17.261c0.028,0.009,0.046-0.013,0.073-0.006c-4.396,4.274-8.825,8.513-13.224,12.782
		c-0.074,0.003-0.147,0.007-0.221,0.01c-0.376,0.014-0.496,0.338-0.419,0.609c-0.574,0.558-1.154,1.109-1.727,1.669
		c-1.14,1.115,0.604,2.856,1.749,1.748c1.03-0.996,2.068-1.983,3.098-2.98c9.552,0.379,19.13-0.359,28.552-1.911
		c0.767-0.126,0.596-1.465-0.185-1.37c-9.031,1.106-18.036,1.671-27.1,2.062c4.36-4.216,8.752-8.398,13.116-12.609
		c5.769,0.292,11.588,0.337,17.312-0.432c0.801-0.107,0.862-1.336,0-1.301c-5.365,0.217-10.691,0.521-16.046,0.517
		c1.855-1.789,3.722-3.565,5.578-5.354c0.084,0.211,0.238,0.386,0.499,0.353c5.515-0.702,11.017-0.817,16.56-1.097
		c0.767-0.039,0.764-1.143,0-1.19c-5.384-0.33-10.797,0.253-16.124,1.037c34.08-32.837,68.283-65.544,102.754-97.973
		c-21.348,36.553-40.475,74.386-57.226,113.264c-3.325,7.718-6.634,15.456-9.664,23.296c-2.706,7.002-3.399,16.359-6.814,22.693
		c1.444,6.75-0.336,8.38-5.34,4.89c-2.982-0.485-5.489-1.814-7.522-3.986c-1.106-0.72-2.198-1.538-3.281-2.384
		c5.262,0.131,10.532,0.228,15.779,0.017c0.717-0.029,0.719-1.091,0-1.115c-5.643-0.194-11.312-0.037-16.967,0.144
		c-2.897-2.369-5.688-4.967-8.389-7.361c5.138,0.387,10.3,0.632,15.447,0.36c0.57-0.03,0.579-0.889,0-0.892
		c-5.445-0.034-10.873,0.014-16.313-0.241c-0.132-0.115-0.272-0.246-0.403-0.36c-6.212-5.376-12.248-10.945-18.319-16.474
		c7.562,0.332,15.178-0.03,22.628-1.356c0.683-0.122,0.535-1.296-0.166-1.223c-7.927,0.818-15.776,1.371-23.741,1.43
		c-2.599-2.357-5.173-4.742-7.827-7.039c-0.704-0.61-1.651,0.325-1.025,1.026c10.443,11.695,22.159,22.27,34.348,32.241
		c-0.143,0.005-0.286,0.008-0.428,0.013c-0.454,0.015-0.455,0.695,0,0.707c0.452,0.012,0.908,0.019,1.36,0.032
		c6.664,5.425,13.456,10.683,20.263,15.835c0.782,0.592,1.939-0.212,1.915-1.099c-0.913-32.866,20.672-68.089,34.574-97.015
		c13.405-27.892,28.169-55.028,43.796-81.73c0.237-0.223,0.471-0.448,0.708-0.671c0.129-0.121,0.215-0.254,0.28-0.391
		c0.271-0.012,0.541-0.048,0.813-0.058C221.631,2.875,221.639-0.063,219.746,0.001z M148.794,65.842
		c-16.888,16.156-33.652,32.44-50.412,48.728c-0.033-0.001-0.066,0-0.099-0.001c-0.04-0.273-0.148-0.531-0.441-0.698
		c-3.34-1.9-6.809-3.644-10.321-5.334c0.069-0.001,0.15-0.01,0.217-0.009c3.491,0.05,6.963-0.001,10.452-0.143
		c0.609-0.025,0.612-0.927,0-0.948c-2.712-0.095-5.416-0.173-8.13-0.131c-0.586,0.009-2.798,0.252-4.455,0.333
		c-3.283-1.548-6.607-3.035-9.924-4.525c4.859,0.118,9.724,0.251,14.576,0.089c0.73-0.024,0.731-1.11,0-1.134
		c-5.518-0.184-11.053,0.01-16.576,0.133c-2.83-1.272-5.619-2.572-8.407-3.874c7.455-0.441,14.914-0.859,22.344-1.617
		c0.758-0.077,0.79-1.243,0-1.209c-8.184,0.361-16.344,1.13-24.506,1.83c-0.347-0.165-0.707-0.319-1.053-0.485
		C82.912,84.959,211.65,7.518,211.431,7.184C211.96,7.991,154.368,60.51,148.794,65.842z"/>
	<path d="M63.648,173.301c-14.885,0.717-26.372,17.857-28.279,32.264c-0.036-0.034-0.075-0.062-0.111-0.096
		c-12.388-11.807-12.807-35.02-1.307-47.378c3.511,4.075,8.361,6.833,14.252,6.939c9.77,0.176,25.749-13.648,13.496-22.036
		c-9.191-6.292-24.446,0.173-27.572,10.339c-0.118-0.177-0.262-0.35-0.369-0.528c-11.777-19.649,9.337-39.64,29.152-34.391
		c0.796,0.211,1.094-0.948,0.336-1.219c-14.99-5.354-31.214,2.65-34.885,18.503c-1.647,7.111,0.16,15.195,4.523,21.078
		c-14.991,12.644-12.416,40.693,2.187,52.703c0,0.09-0.014,0.185-0.013,0.274c0.081,19.945,15.854,28.961,33.611,31.618
		c1.636,0.245,2.397-2.178,0.702-2.546c-14.223-3.086-27.647-7.829-30.672-23.924c-0.192-1.024-0.321-2.072-0.393-3.136
		c4.059,2.398,8.842,3.664,14.268,3.297c12.453-0.842,26.32-10.645,27.632-23.744C81.218,181.192,73.74,172.003,63.648,173.301z
		 M51.373,144.354c5.263-0.359,14.462,0.11,9.842,10.878c-4.67,10.886-18.321,7.159-24.999,0.619
		C38.425,148.763,43.949,144.86,51.373,144.354z M76.411,193.751c-1.234,5.154-5.185,9.223-9.274,12.241
		c-8.552,6.311-19.969,7.849-28.817,1.91c0.806-13.509,10.144-28.331,23.232-32.389c0.199,0.237,0.469,0.41,0.847,0.404
		C71.906,175.767,78.837,183.613,76.411,193.751z"/>
	<path d="M64.474,75.002c-4.853,0.137-9.695,0.383-14.544,0.642c-0.701,0.038-0.709,1.123,0,1.097
		c4.852-0.181,9.697-0.376,14.544-0.68C65.149,76.019,65.161,74.982,64.474,75.002z"/>
	<path d="M120.666,149.052c-5.535,0.213-10.966,0.899-16.527,0.773c-0.529-0.012-0.523,0.789,0,0.818
		c5.468,0.301,11.27,0.52,16.666-0.568C121.379,149.958,121.25,149.029,120.666,149.052z"/>
</g>
<g>
</g>
<g>
</g>
<g>
</g>
<g>
</g>
<g>
</g>
<g>
</g>
<g>
</g>
<g>
</g>
<g>
</g>
<g>
</g>
<g>
</g>
<g>
</g>
<g>
</g>
<g>
</g>
<g>
</g>
</svg>
