<?xml version="1.0" encoding="iso-8859-1"?>
<!-- Generator: Adobe Illustrator 18.0.0, SVG Export Plug-In . SVG Version: 6.00 Build 0)  -->
<!DOCTYPE svg PUBLIC "-//W3C//DTD SVG 1.1//EN" "http://www.w3.org/Graphics/SVG/1.1/DTD/svg11.dtd">
<svg version="1.1" id="Capa_1" xmlns="http://www.w3.org/2000/svg" xmlns:xlink="http://www.w3.org/1999/xlink" x="0px" y="0px"
	 viewBox="0 0 259.429 259.429" style="enable-background:new 0 0 259.429 259.429;" xml:space="preserve">
<g>
	<path d="M251.824,143.619c-0.304-0.38-0.709-0.349-1.052-0.168c-0.206-0.595-0.681-1.106-1.457-1.201
		c-38.02-4.641-76.625-9.515-112.574-23.446c-33.525-12.991-79.195-39.137-86.985-77.418c-0.007-0.035-0.041-0.042-0.052-0.074
		c0.027-0.398-0.177-0.781-0.707-0.748C23.316,42.124,1.573,68.869,0.39,93.534c-0.511,0.275-0.572,1.119,0.133,1.387
		c37.342,14.221,74.916,25.813,110.747,43.623c-0.889,3.591-1.994,6.976-3.204,10.264c-0.133,0.136-0.203,0.314-0.2,0.502
		c-6.732,17.967-18.222,31.59-34.566,42.398c-0.116,0.041-0.219,0.083-0.28,0.176c-1.996,1.311-3.986,2.625-6.125,3.857
		c-1.095,0.63-0.358,2.599,0.888,2.107c0.096-0.038,0.187-0.086,0.282-0.124c0.014,0.455,0.293,0.911,0.827,0.873
		c4.077-0.284,8.265-2.132,10.727,1.937c1.3,2.147-0.995,10.77-1.204,13.062c-0.121,1.327,1.576,1.723,2.415,1
		c21.394-18.419,36.202-42.036,43.56-69.222c35.278,19.238,67.419,42.957,95.521,71.814c0.651,0.668,1.44,0.62,2.046,0.24
		c0.119,0.101,0.193,0.242,0.362,0.291C257.991,228.185,268.214,164.105,251.824,143.619z M91.354,120.76
		c0.005,0,0.01,0.001,0.015,0.001c-0.135,0.959-0.208,1.922-0.189,2.882c-22.135-10.063-44.913-18.326-67.685-24.593
		c5.684,0.053,11.282,0.893,16.797,2.521c0.553,0.163,0.783-0.688,0.237-0.86c-6.615-2.089-13.273-2.844-20.149-2.485
		c-5.842-1.561-11.683-3.027-17.51-4.316c0.454-2.178,0.965-4.304,1.51-6.406c9.77,1.453,19.572,2.465,29.453,2.702
		c0.54,0.013,0.535-0.81,0-0.837c-9.798-0.486-19.554-1.226-29.28-2.511c0.717-2.693,1.538-5.317,2.485-7.875
		c6.956-0.341,13.891-0.201,20.842,0.245c0.817,0.052,0.802-1.195,0-1.264c-6.817-0.593-13.621-0.511-20.435-0.017
		c1.748-4.506,3.99-8.771,6.87-12.795c7.168,0.053,14.332,0.16,21.501,0.074c0.706-0.008,0.707-1.088,0-1.097
		c-6.952-0.084-13.9,0.015-20.85,0.069c1.173-1.562,2.438-3.09,3.846-4.568c1.77-1.859,3.625-3.458,5.529-4.931
		c0.081,0.037,0.132,0.107,0.237,0.112c6.392,0.274,12.773,0.591,19.171,0.596c0.833,0.001,0.817-1.227,0-1.283
		c-5.907-0.403-11.821-0.536-17.738-0.687c2.942-2.091,6.05-3.797,9.257-5.365c4.141,0.525,8.269,1.131,12.436,1.377
		c0.587,0.035,0.734-0.94,0.141-1.041c-3.534-0.597-7.097-0.934-10.662-1.281c3.587-1.658,7.311-3.155,11.165-4.704
		c2.322,26.333,28.555,48.135,53.041,62.616c-4.779,3.188-8.549,8.658-9.761,14.453c-0.091-0.006-0.182-0.011-0.273-0.017
		C90.524,119.421,90.542,120.684,91.354,120.76z M102.387,186.763c-4.555,6.57-9.716,12.731-15.388,18.363
		c-4.998,4.962-5.931,3.941-5.688,0.733c1.354-0.443,2.631-0.499,4.08-0.429c0.654,0.032,0.776-0.967,0.153-1.132
		c-1.397-0.371-2.77-0.183-4.092,0.275c0.177-1.33,0.455-2.884,0.71-4.481c1.291,0.215,2.581,0.442,3.88,0.61
		c0.432,0.056,0.538-0.697,0.104-0.767c-1.288-0.208-2.586-0.358-3.882-0.519c0.165-1.088,0.315-2.183,0.395-3.236
		c0.071-0.931-0.885-1.374-1.65-1.257c-3.438,0.526-6.866,1.055-10.292,1.632c2.233-1.02,4.389-2.206,6.496-3.479
		c4.708,0.27,9.438,0.566,14.135,0.375c0.708-0.029,0.677-1.001,0-1.078c-3.967-0.454-7.983-0.557-11.992-0.627
		c2.708-1.778,5.281-3.776,7.736-5.923c2.962-0.03,5.923-0.048,8.883-0.177c0.845-0.037,0.854-1.313,0-1.32
		c-2.437-0.021-4.871,0.054-7.306,0.109c1.674-1.55,3.271-3.189,4.804-4.89c2.673-0.236,5.383-0.411,8-0.92
		c0.738-0.143,0.575-1.357-0.178-1.315c-2.224,0.124-4.455,0.493-6.676,0.863c1.549-1.8,2.988-3.694,4.374-5.628
		c1.86,0.01,3.72,0.008,5.576-0.12c0.836-0.058,0.838-1.243,0-1.301c-1.498-0.104-2.998-0.124-4.499-0.124
		c1.258-1.845,2.416-3.755,3.518-5.694c2.157-0.209,4.319-0.428,6.413-0.947c0.586-0.145,0.468-1.077-0.143-1.059
		c-1.841,0.052-3.669,0.332-5.492,0.645c0.944-1.74,1.8-3.52,2.61-5.317c2.066,0.063,4.147,0.146,6.188-0.019
		c0.92-0.074,0.922-1.357,0-1.432c-1.829-0.148-3.691-0.095-5.546-0.036c0.991-2.324,1.837-4.695,2.592-7.086
		c1.867,0.072,3.742,0.156,5.598,0.07c1.064-0.049,1.066-1.606,0-1.655c-1.692-0.078-3.399-0.014-5.102,0.053
		c0.891-3.048,1.583-6.136,2.036-9.245c2.016,1.013,4.05,1.964,6.054,3.02c0.999,0.526,1.967,1.095,2.961,1.629
		C117.709,159.207,111.421,173.734,102.387,186.763z M123.121,139.805c-7.91-4.35-15.949-8.463-24.078-12.364
		c3.384,0.381,6.767,0.766,10.163,1.029c0.559,0.043,0.53-0.785,0-0.855c-3.959-0.525-7.934-0.886-11.907-1.278
		c-0.139-0.014-0.238,0.033-0.311,0.103c-0.953-0.45-1.887-0.943-2.843-1.386c0.13-1.377,0.335-2.683,0.58-3.957
		c4.378,0.446,8.762,0.911,13.153,1.062c0.921,0.032,0.862-1.284,0-1.395c-4.268-0.547-8.576-0.797-12.878-1.058
		c0.47-1.981,1.189-3.809,2.061-5.568c3.341,0.271,6.826,0.814,10.158,0.594c0.658-0.043,0.897-1.085,0.166-1.224
		c-3.137-0.593-6.48-0.537-9.697-0.641c0.763-1.325,1.677-2.592,2.743-3.814c2.024-0.127,3.946,0.109,5.925,0.621
		c0.949,0.245,1.306-1.132,0.4-1.452c-1.567-0.553-3.189-0.765-4.826-0.747c0.452-0.436,0.911-0.871,1.415-1.294
		c6.216,3.593,12.277,6.713,17.751,9.298c4.901,2.314,9.869,4.43,14.892,6.375c-3.742,1.593-6.848,4.062-9.146,7.486
		C124.971,132.134,123.042,136.196,123.121,139.805z M219.564,211.891c-26.771-27.413-59.137-51.329-94.133-70.837
		c1.157-3.368,1.416-6.714,3.369-9.934c2.104-3.468,5.02-6.316,8.405-8.531c0.086-0.056,0.116-0.146,0.159-0.228
		c34.436,13.092,71.443,18.194,107.911,22.749C221.973,154.251,214.476,189.225,219.564,211.891z M225.712,215.384
		c0.238-8.78,1.315-17.508,4.161-25.856c2.218-6.505,9.272-25.621,18.181-26.022c1.67,6.764,1.88,13.132-0.236,19.972
		c-1.807,5.844-5.675,16.275-12.198,18.604c-0.433-4.035-0.646-7.861,0.461-11.886c1.225-4.454,4.084-7.338,6.264-11.212
		c0.477-0.848-0.471-1.764-1.31-1.31c-8.014,4.33-10.305,18.042-6.881,25.772c0.022,0.051,0.077,0.058,0.108,0.099
		c-0.011,0.66,0.372,1.314,1.189,1.271c7.625-0.399,11.048-9.539,13.573-15.63c3.465-8.357,4.989-17.963,0.484-26.101
		c0.394-0.527,0.254-1.465-0.505-1.728c-8.677-3.006-14.878,11.479-17.829,17.578c-5.514,11.398-8.026,23.748-7.437,36.354
		c-0.345-0.022-0.675-0.016-1.026-0.05c-0.08-0.178-0.172-0.357-0.33-0.523c-0.02-0.021-0.041-0.041-0.061-0.062
		c-4.563-22.512,1.465-61.072,28.113-67.883c0.281-0.072,0.457-0.227,0.629-0.382C261.894,168.425,256.917,215.48,225.712,215.384z"
		/>
</g>
<g>
</g>
<g>
</g>
<g>
</g>
<g>
</g>
<g>
</g>
<g>
</g>
<g>
</g>
<g>
</g>
<g>
</g>
<g>
</g>
<g>
</g>
<g>
</g>
<g>
</g>
<g>
</g>
<g>
</g>
</svg>
