<?xml version="1.0" encoding="iso-8859-1"?>
<!-- Generator: Adobe Illustrator 18.0.0, SVG Export Plug-In . SVG Version: 6.00 Build 0)  -->
<!DOCTYPE svg PUBLIC "-//W3C//DTD SVG 1.1//EN" "http://www.w3.org/Graphics/SVG/1.1/DTD/svg11.dtd">
<svg version="1.1" id="Capa_1" xmlns="http://www.w3.org/2000/svg" xmlns:xlink="http://www.w3.org/1999/xlink" x="0px" y="0px"
	 viewBox="0 0 180.621 180.621" style="enable-background:new 0 0 180.621 180.621;" xml:space="preserve">
<g>
	<path d="M151.833,44.817c1.001-0.525,1.558-1.767,0.462-2.764c-13.989-12.713-25.968-26.84-37.827-41.507
		c-0.531-0.657-1.37-0.416-1.825,0.129c-0.244-0.418-0.676-0.717-1.355-0.67C84.087,1.878,57.733,3.629,30.463,1.762
		c-1.305-0.089-1.696,1.855-0.677,2.403c-0.487,48.71,0.375,97.212-1.267,145.848c-0.262,0.025-0.525,0.046-0.788,0.07
		c-0.752,0.07-0.771,1.242,0,1.19c0.251-0.017,0.501-0.037,0.751-0.054c-0.296,8.538-0.646,17.079-1.121,25.627
		c-0.096,1.719,1.908,2.118,2.931,1.223c12.439,5.605,36.682,0.273,49.904-0.018c23.563-0.52,47.127-1.04,70.69-1.561
		c1.59-0.035,2.126-1.652,1.642-2.764C154.789,130.991,152.283,87.611,151.833,44.817z M144.554,39.877
		c-4.737-0.58-9.495-0.462-14.28-0.264c-2.612,0.108-5.221,0.284-7.826,0.508c-1.564,0.125-3.125,0.278-4.684,0.458
		c-2.575,1.36-3.61,0.992-3.105-1.104c-0.939-1.635-0.123-5.979-0.188-8.082c-0.102-3.3-0.215-6.597-0.345-9.896
		c-0.242-6.171-0.5-12.34-1.012-18.494C121.781,16.642,132.736,28.838,144.554,39.877z M91.359,174.088
		c-9.922,0.232-19.843,0.46-29.764,0.699c-4.658,0.112-25.776,3.231-30.643,0.656c0.071-1.292,0.135-2.591,0.206-3.883
		c10.332,0.914,21.015-0.184,31.195-1.932c0.908-0.156,0.707-1.745-0.22-1.625c-10.32,1.335-20.539,1.569-30.896,2.069
		c0.142-2.617,0.269-5.245,0.407-7.866c4.736,0.324,9.444,0.128,14.139-0.646c0.706-0.116,0.55-1.337-0.17-1.26
		c-4.631,0.494-9.253,0.689-13.903,0.632c0.173-3.321,0.328-6.653,0.492-9.98c11.086-0.77,22.166-1.607,33.234-2.617
		c0.882-0.081,0.902-1.458,0-1.395c-11.069,0.776-22.122,1.724-33.171,2.739c0.156-3.191,0.291-6.391,0.436-9.586
		c5.318,0.949,11.548,0.094,16.872-0.322c0.871-0.068,0.897-1.375,0-1.376c-5.334-0.006-11.619-0.383-16.839,0.962
		c0.166-3.691,0.31-7.388,0.458-11.084c13.831-0.886,27.657-1.76,41.502-2.391c0.868-0.039,0.878-1.368,0-1.357
		c-13.861,0.165-27.691,0.983-41.456,2.634c0.127-3.194,0.23-6.392,0.341-9.589c7.087-0.481,14.181-0.54,21.28-0.344
		c0.746,0.021,0.736-1.109,0-1.153c-7.111-0.423-14.168-0.166-21.247,0.557c0.146-4.281,0.272-8.564,0.384-12.847
		c0.09,0.089,0.207,0.161,0.372,0.168c12.333,0.496,24.681,0.396,37.021,0.26c1.064-0.012,1.066-1.643,0-1.655
		c-12.339-0.135-24.688-0.235-37.021,0.26c-0.154,0.006-0.258,0.077-0.347,0.157c0.202-7.854,0.332-15.71,0.395-23.563
		c6.16-0.218,12.331-0.568,18.467-1.081c0.847-0.071,0.871-1.376,0-1.339c-6.149,0.262-12.312,0.691-18.449,1.248
		c0.023-3.333-0.007-6.664-0.014-9.995c9.766,0.177,19.562-0.5,29.231-1.825c0.803-0.11,0.62-1.493-0.193-1.424
		c-9.677,0.82-19.351,1.445-29.04,2.068c-0.012-3.808-0.067-7.612-0.12-11.417c6.642-0.321,13.277-0.641,19.902-1.247
		c0.749-0.069,0.778-1.21,0-1.19c-6.652,0.174-13.281,0.635-19.916,1.095c-0.059-3.874-0.145-7.746-0.251-11.616
		c8.264-0.023,16.543-0.275,24.793-0.759c0.948-0.056,0.965-1.506,0-1.487c-8.275,0.159-16.565,0.552-24.819,1.172
		c-0.101-3.536-0.274-7.063-0.419-10.594c5.989-0.069,11.996-0.098,17.963-0.591c0.717-0.059,0.741-1.126,0-1.134
		c-6.002-0.067-12.011,0.338-18.004,0.697c-0.157-3.701-0.34-7.399-0.54-11.095c7.945-0.456,15.878-0.646,23.838-0.57
		c1.143,0.011,1.13-1.708,0-1.766c-7.988-0.413-15.966-0.174-23.919,0.677c-0.238-4.225-0.514-8.445-0.845-12.658
		c25.746,4.177,52.578,1.935,78.335-1.147c-0.217,7.117-0.129,14.244-0.021,21.362c0.089,5.878-0.924,12.998,0.916,18.557
		c0.314,0.949,1.014,1.363,1.953,1.487c4.889,0.644,10.491-0.797,15.446-1.033c5.743-0.274,11.53,0.104,17.247-0.403
		c0.614-0.055,1.092-0.449,1.376-0.943c0.01,0.009,0.019,0.018,0.029,0.027c-0.143,0.61,0.035,1.251,0.772,1.575l0.23,0.101
		c0.379,42.669-1.299,85.971,1.683,128.552C130.483,173.173,110.921,173.63,91.359,174.088z"/>
	<path d="M56.662,85.536c-7.168,1.678-14.299,2.322-21.633,2.63c-0.871,0.036-0.851,1.265,0,1.339
		c7.419,0.643,14.909-0.475,22.004-2.624C57.892,86.62,57.537,85.331,56.662,85.536z"/>
</g>
<g>
</g>
<g>
</g>
<g>
</g>
<g>
</g>
<g>
</g>
<g>
</g>
<g>
</g>
<g>
</g>
<g>
</g>
<g>
</g>
<g>
</g>
<g>
</g>
<g>
</g>
<g>
</g>
<g>
</g>
</svg>
