<?xml version="1.0" encoding="iso-8859-1"?>
<!-- Generator: Adobe Illustrator 19.0.0, SVG Export Plug-In . SVG Version: 6.00 Build 0)  -->
<svg version="1.1" id="Layer_1" xmlns="http://www.w3.org/2000/svg" xmlns:xlink="http://www.w3.org/1999/xlink" x="0px" y="0px"
	 viewBox="0 0 229.94 229.94" style="enable-background:new 0 0 229.94 229.94;" xml:space="preserve">
<g>
	<g>
		<g>
			<path d="M170.404,8.054l-54.396,13.924L63.9,6.118L0,23.314v200.508l64.18-19.244l51.784,14.476l51.188-14.484l62.788,16.508
				V23.294L170.404,8.054z M167.116,200.462l-51.156,14.476L64.144,200.45L3.972,218.494V26.358l59.86-16.108l52.084,15.852
				l54.488-13.948l55.572,14.228v189.552L167.116,200.462z"/>
			<path d="M167.704,17.762v-0.296H167.7l-0.564,0.148l-0.568-0.148v0.3L115.82,31.062l-0.348,0.092l0.008-0.032L63.596,17.466v0.22
				L12.548,31.058l-0.42,0.112v0.836V207.19v0.836l51.884-13.592l-0.016-0.064l51.192,13.476l0.208-0.788v0.132v0.836l51.852-13.584
				l51.628,13.588V31.23L167.704,17.762z M13.26,32.882l28.392-7.436c5.024,7.7,8.104,16.452,11.048,24.936
				c2.8,8.068,5.696,16.408,10.288,23.888c0.196,0.32,0.404,0.604,0.604,0.912v91.832c-8.095-0.277-16.445-4.225-21.4-10.656
				c-5.652-7.328-7.296-17.552-4.504-28.088c0.264-1.004,0.552-2.208,0.248-3.392c0.944-2.396,1.968-4.768,3.008-7.068
				c1.348-2.98,2.74-6.064,3.864-9.2c2.78-7.752,3.268-14.556,1.452-20.228c-1.852-5.784-6.032-10.348-10.076-14.768
				c-1.556-1.7-3.16-3.46-4.604-5.252c-8.104-10.084-12.248-23.272-11.364-36.18l-1.132-0.08
				C18.18,45.294,22.412,58.77,30.696,69.074c1.464,1.824,3.084,3.592,4.652,5.308c3.96,4.328,8.056,8.804,9.832,14.352
				c1.74,5.428,1.252,11.988-1.444,19.5c-1.108,3.096-2.488,6.156-3.824,9.116c-0.916,2.032-1.82,4.12-2.68,6.228
				c-1.212-1.54-3.572-2.18-7-1.76c-5.44,0.672-12.08,2.248-16.972,3.984V32.882z M63.596,192.534L13.26,205.722v-77.544
				c4.792-1.784,11.688-3.432,17.248-4.12c2.684-0.32,4.592,0.076,5.136,1.068c0.356,0.648,0.108,1.58-0.16,2.596
				c-2.964,11.188-1.176,22.132,4.912,30.02c5.368,6.96,14.412,11.204,23.2,11.5V192.534z M63.596,73.014
				c-4.308-7.212-7.124-15.228-9.824-23.004c-2.928-8.436-6.004-17.124-10.984-24.864l20.808-5.452V73.014z M64.728,18.938
				l50.46,13.28l0.208-0.788v13.188c-3.432,1-6.948,1.94-10.516,2.224c-5.284,0.424-12.144-0.916-15.62-5.88
				c-2.94-4.2-2.712-9.728-2.184-15.496l-1.132-0.1c-0.544,5.984-0.772,11.732,2.388,16.248c3.752,5.364,11.056,6.804,16.636,6.36
				c3.568-0.28,7.04-1.188,10.428-2.172v18.644c-0.448-0.268-0.892-0.548-1.288-0.884c-0.744-0.624-1.38-1.328-2.052-2.076
				c-0.684-0.756-1.388-1.54-2.208-2.224c-3.704-3.084-9.568-3.808-14.588-1.808c-4.38,1.748-8.08,5.456-10.148,10.176
				c-1.312,2.984-1.94,6.176-2.556,9.268c-0.276,1.416-0.568,2.876-0.916,4.288c-0.316,1.284-0.7,2.244-1.54,2.756
				c-0.644,0.396-1.556,0.5-2.792,0.332c-4.64-0.648-8.86-3.844-12.58-9.44V18.938z M64.728,76.85
				c3.68,5.032,7.844,7.912,12.42,8.552c0.428,0.06,0.828,0.088,1.2,0.088c0.944,0,1.716-0.188,2.344-0.576
				c1.24-0.756,1.716-2.108,2.048-3.452c0.356-1.44,0.648-2.916,0.928-4.34c0.596-3.032,1.22-6.164,2.48-9.032
				c1.952-4.452,5.424-7.944,9.532-9.58c4.584-1.828,10.104-1.156,13.44,1.624c0.756,0.632,1.408,1.348,2.088,2.112
				c0.672,0.744,1.364,1.508,2.16,2.184c0.616,0.516,1.304,0.94,2.024,1.312v21.616h0.004c-1.82,0.208-3.596,0.68-5.216,1.612
				c-6.912,3.98-6.556,12.628-6.296,18.944c0.052,1.28-0.032,2.184-0.608,2.744c-0.6,0.58-1.728,0.772-2.52,0.868
				c-3.38,0.404-5.376-0.088-7.916-0.724c-1.372-0.344-2.924-0.732-4.888-1.016c-4.216-0.608-11.948-0.976-16.496,3.356
				c-2.728,2.596-3.916,6.556-3.436,11.452c0.744,7.544,3.092,14.592,5.368,21.412c1.18,3.528,2.396,7.176,3.4,10.9
				c0.496,1.848,0.88,3.964-0.064,5.668c-1.048,1.892-3.568,2.964-5.492,3.528c-2.084,0.616-4.28,0.852-6.504,0.872V76.85z
				 M115.4,139.842h-0.004v66.884l-50.668-13.332v-24.108c2.444-0.016,4.856-0.336,7.144-1.008c3.396-1,5.696-2.548,6.836-4.604
				c1.34-2.424,0.848-5.204,0.264-7.356c-1.02-3.784-2.248-7.468-3.432-11.028c-2.34-7.008-4.548-13.624-5.26-20.916
				c-0.284-2.912-0.044-6.936,2.744-9.588c3.86-3.672,10.8-3.304,14.612-2.752c1.844,0.264,3.272,0.624,4.66,0.968
				c2.652,0.668,4.948,1.24,8.736,0.772c1.116-0.136,2.728-0.436,3.82-1.484c1.424-1.38,1.344-3.388,1.3-4.468
				c-0.248-6.056-0.556-13.592,5.164-16.888c1.252-0.724,2.64-1.124,4.084-1.32V139.842z M151.644,22.846
				c0.632,1.972,3.328,3.092,5.968,4.16l0.532,0.216c0.936,0.384,2.236,1,2.708,1.904c0.708,1.36-0.688,3.212-2.428,4.34
				c-0.624,0.404-1.292,0.764-1.956,1.132c-1.632,0.892-3.32,1.816-4.5,3.292c-2.188,2.72-1.76,5.948-1.356,9.072
				c0.336,2.552,0.652,4.96-0.452,6.944c-0.512,0.916-1.296,1.672-2.22,2.36c0.348-1.68,0.252-3.472-0.372-5.304
				c-1.132-3.328-3.84-6.344-7.064-7.864c-4.688-2.216-10.62-2.368-18.132-0.456c-1.78,0.452-3.572,0.984-5.304,1.496
				c-0.176,0.052-0.356,0.104-0.532,0.156V32.046h-0.008L151.644,22.846z M117.384,45.222c1.72-0.508,3.5-1.036,5.26-1.484
				c7.244-1.836,12.928-1.712,17.368,0.384c2.952,1.396,5.432,4.16,6.472,7.208c0.512,1.496,0.824,3.684-0.052,5.936
				c-0.596,0.364-1.216,0.72-1.852,1.076c-0.92,0.516-1.848,1.052-2.732,1.632c-0.196-0.42-0.492-0.812-0.916-1.148
				c-1.52-1.212-4.112-1.5-5.916-0.66c-1.696,0.8-2.936,2.124-4.136,3.4c-0.708,0.752-1.436,1.528-2.244,2.172
				c-3.24,2.596-8.248,2.988-12.104,1.276V45.47h-0.004C116.812,45.386,117.1,45.306,117.384,45.222z M139.952,78.53
				c0.456,0.756,0.94,1.512,1.424,2.276c2.348,3.692,4.776,7.512,4.512,11.476c-0.044,0.668-0.188,1.084-0.452,1.3
				c-0.468,0.38-1.532,0.312-1.832,0.372c-4.368,0-8.556-1.696-12.6-3.332c-1.092-0.444-2.18-0.884-3.272-1.292
				c-3.204-1.204-7.268-2.272-11.2-2.084V66.243c4.163,1.63,9.373,1.122,12.812-1.617c0.868-0.692,1.624-1.5,2.36-2.284
				c1.18-1.256,2.292-2.44,3.792-3.152c1.412-0.664,3.532-0.432,4.728,0.52c0.36,0.288,0.552,0.612,0.656,0.956
				c-0.728,0.548-1.42,1.136-2.004,1.828C135.64,66.362,136.02,72.058,139.952,78.53z M166.564,101.474l-0.22,0.18
				c0.072,0.088,0.144,0.168,0.22,0.256v43.524v47.184l-50.04,13.112v-65.88V89.518c3.584-0.2,7.396,0.804,10.404,1.932
				c1.076,0.404,2.144,0.836,3.22,1.272c4.248,1.72,8.644,3.5,13.448,3.5c0.916-0.052,2.304-0.096,3.272-0.888
				c1.148-0.94,1.248-2.42,1.28-2.908c0.312-4.704-2.32-8.84-4.868-12.84c-0.472-0.748-0.948-1.492-1.4-2.236
				c-1.96-3.232-4.732-9.268-1.268-13.404c1.236-1.476,3.096-2.524,5.076-3.636c2.488-1.4,5.068-2.848,6.436-5.308
				c1.472-2.64,1.092-5.54,0.728-8.344c-0.364-2.772-0.708-5.392,0.872-7.36c0.904-1.12,2.32-1.9,3.82-2.72
				c0.716-0.388,1.428-0.78,2.1-1.212c2.608-1.688,4.612-4.596,3.212-7.296c-0.808-1.548-2.488-2.392-3.86-2.952l-0.54-0.22
				c-1.688-0.688-4.156-1.708-4.596-2.64l12.704-3.328v79.483c-0.846-0.966-1.657-1.825-2.532-2.483l-1.368,1.808
				c0.976,0.74,1.892,1.752,2.968,3.052l0.932-0.776V101.474z M217.74,206.558L167.7,193.39v-47.96v-42.2
				c0.612,0.688,1.236,1.336,1.892,1.872l1.436-1.752c-0.98-0.808-1.908-1.904-2.928-3.144l-0.4,0.328V18.938l50.04,13.168V206.558z
				"/>
			<path d="M80.26,182.998c-1.288,1.264-2.66,2.516-4.064,3.724l0.736,0.86c1.284-1.1,2.54-2.24,3.732-3.392l2.408,2.28l0.78-0.824
				l-3.2-3.028L80.26,182.998z"/>
			<path d="M199.58,58.122c-1.672,2.128-3.456,4.244-5.296,6.292l0.844,0.756c1.7-1.888,3.344-3.832,4.908-5.792l3.2,3.924
				l0.876-0.716l-4.088-5.02L199.58,58.122z"/>
			<path d="M182.636,41.802l3.192,3.924l0.884-0.716l-4.088-5.02l-0.436,0.556c-1.7,2.16-3.484,4.276-5.3,6.292l0.844,0.756
				C179.4,45.734,181.048,43.786,182.636,41.802z"/>
			<path d="M155.188,67.046l3.192,3.924l0.884-0.716l-4.088-5.02l-0.436,0.556c-1.708,2.168-3.492,4.284-5.3,6.292l0.844,0.756
				C151.948,70.986,153.6,69.042,155.188,67.046z"/>
			<path d="M129.3,114.554l2.412,2.28l0.78-0.824l-3.204-3.028l-0.392,0.384c-1.288,1.264-2.656,2.516-4.064,3.724l0.744,0.86
				C126.856,116.85,128.108,115.706,129.3,114.554z"/>
			<path d="M154.632,143.182c-1.292,1.268-2.66,2.52-4.06,3.724l0.736,0.86c1.28-1.096,2.532-2.236,3.728-3.392l2.412,2.28
				l0.78-0.824l-3.204-3.028L154.632,143.182z"/>
			<path d="M97.012,152.498c-1.288,1.264-2.656,2.516-4.064,3.724l0.744,0.86c1.28-1.1,2.532-2.244,3.724-3.396l2.408,2.28
				l0.78-0.824l-3.2-3.028L97.012,152.498z"/>
			<path d="M131.268,181.766c-1.704,2.164-3.488,4.276-5.296,6.292l0.844,0.756c1.672-1.86,3.32-3.804,4.908-5.792l3.2,3.924
				l0.876-0.716l-4.088-5.02L131.268,181.766z"/>
			<path d="M23.568,186.158c-1.304,1.28-2.672,2.532-4.06,3.724l0.736,0.86c1.272-1.088,2.524-2.228,3.728-3.396l2.412,2.28
				l0.776-0.824l-3.2-3.028L23.568,186.158z"/>
			<path d="M198.296,122.19c-1.688,2.144-3.468,4.26-5.296,6.292l0.844,0.756c1.684-1.876,3.332-3.824,4.908-5.796l3.2,3.924
				l0.876-0.716l-4.088-5.02L198.296,122.19z"/>
			<path d="M195.88,171.906c-1.66,2.112-3.44,4.228-5.296,6.288l0.844,0.756c1.708-1.9,3.356-3.844,4.908-5.792l3.2,3.92
				l0.876-0.716l-4.088-5.02L195.88,171.906z"/>
			<path d="M97.464,127.366l0.876-0.716l-4.088-5.02l-0.436,0.556c-1.688,2.144-3.468,4.26-5.296,6.292l0.844,0.756
				c1.684-1.876,3.332-3.824,4.908-5.796L97.464,127.366z"/>
			<path d="M27.16,149.838c-1.656,2.104-3.436,4.224-5.296,6.292l0.844,0.756c1.712-1.904,3.36-3.852,4.908-5.792l3.2,3.92
				l0.876-0.716l-4.088-5.02L27.16,149.838z"/>
			<path d="M182.032,144.042c-1.26,1.236-2.628,2.492-4.064,3.724l0.744,0.86c1.304-1.124,2.556-2.264,3.724-3.396l2.408,2.28
				l0.78-0.824l-3.2-3.028L182.032,144.042z"/>
			<rect x="209.46" y="69.298" width="1.132" height="98.884"/>
			<polygon points="209.46,59.306 210.592,59.306 210.592,40.086 185.96,31.698 185.592,32.774 209.46,40.898 			"/>
			<path d="M132.752,139.298l2.172,0.644c0.424-1.436,0.88-2.864,1.348-4.284l-2.156-0.712
				C133.64,136.386,133.184,137.838,132.752,139.298z"/>
			<path d="M136.416,128.506l2.116,0.812c0.54-1.4,1.096-2.788,1.676-4.16l-2.084-0.884
				C137.528,125.67,136.964,127.082,136.416,128.506z"/>
			<path d="M134.48,133.862l2.148,0.728c0.48-1.42,0.984-2.828,1.508-4.228l-2.124-0.792
				C135.48,130.99,134.968,132.422,134.48,133.862z"/>
			<path d="M185.116,89.85l1.908,1.232c0.836-1.296,1.66-2.576,2.46-3.796l-1.9-1.244C186.784,87.266,185.952,88.55,185.116,89.85z"
				/>
			<path d="M134.612,141.022l-2.18-0.628c-0.42,1.46-0.816,2.924-1.196,4.4l2.196,0.564
				C133.804,143.902,134.196,142.458,134.612,141.022z"/>
			<path d="M138.568,123.226l2.084,0.896c0.588-1.376,1.208-2.74,1.844-4.088l-2.056-0.964
				C139.8,120.438,139.172,121.822,138.568,123.226z"/>
			<path d="M182.04,94.594l1.892,1.248c0.82-1.244,1.648-2.528,2.476-3.808l-1.908-1.232
				C183.68,92.078,182.852,93.358,182.04,94.594z"/>
			<path d="M128.832,155.93l2.236,0.396c0.256-1.476,0.544-2.944,0.844-4.412l-2.22-0.456
				C129.384,152.942,129.1,154.434,128.832,155.93z"/>
			<path d="M133.156,146.442l-2.204-0.548c-0.364,1.476-0.708,2.956-1.028,4.444l2.22,0.476
				C132.46,149.35,132.796,147.894,133.156,146.442z"/>
			<path d="M152.744,98.43l1.72,1.484c1.068-1.24,2.108-2.14,3.092-2.68l-1.084-1.988C155.228,95.926,154.008,96.966,152.744,98.43z
				"/>
			<path d="M152.4,102.642c0.432-0.636,0.896-1.276,1.38-1.896L152,99.342c-0.516,0.656-1.008,1.34-1.472,2.02
				c-0.396,0.58-0.788,1.168-1.18,1.76l1.9,1.248C151.628,103.786,152.012,103.21,152.4,102.642z"/>
			<path d="M195.648,76.038l1.256,1.888c0.54-0.36,1.02-0.54,1.428-0.556c0.52,0,0.988,0.168,1.436,0.512l1.384-1.796
				c-0.84-0.652-1.792-0.984-2.86-0.984C197.408,75.134,196.544,75.442,195.648,76.038z"/>
			<path d="M180.052,101.494l-1.828-1.348c-1.108,1.508-2.02,2.608-2.772,3.368l1.608,1.596
				C177.892,104.274,178.872,103.09,180.052,101.494z"/>
			<path d="M191.472,80.378l1.82,1.356c0.74-0.992,1.376-1.764,1.892-2.296c0.304-0.312,0.624-0.624,0.948-0.916l-1.5-1.7
				c-0.372,0.324-0.732,0.68-1.076,1.036C192.964,78.47,192.284,79.294,191.472,80.378z"/>
			<path d="M204.336,81.474c-0.584-1.892-1.32-3.384-2.192-4.428l-1.744,1.452c0.68,0.812,1.272,2.04,1.768,3.644L204.336,81.474z"
				/>
			<path d="M181.42,95.534c-0.876,1.316-1.728,2.568-2.54,3.708l1.844,1.316c0.828-1.16,1.696-2.432,2.584-3.768L181.42,95.534z"/>
			<path d="M140.936,118.03l2.048,0.984c0.648-1.352,1.32-2.688,2.012-4.008l-2.008-1.056
				C142.28,115.298,141.6,116.658,140.936,118.03z"/>
			<path d="M190.796,81.31c-0.812,1.12-1.68,2.404-2.584,3.78l1.892,1.248c0.892-1.348,1.744-2.604,2.536-3.704L190.796,81.31z"/>
			<path d="M160.784,94.43c-1.044-0.184-2.072-0.076-3.104,0.276l0.744,2.144c0.668-0.232,1.288-0.304,1.98-0.184
				c0.484,0.084,0.956,0.256,1.448,0.528l1.1-1.98C162.24,94.818,161.512,94.554,160.784,94.43z"/>
			<path d="M143.52,112.946l2,1.072c0.708-1.324,1.436-2.628,2.184-3.916l-1.96-1.136
				C144.984,110.27,144.244,111.602,143.52,112.946z"/>
			<path d="M148.724,104.09c-0.82,1.276-1.62,2.572-2.404,3.884l1.952,1.156c0.764-1.292,1.552-2.564,2.356-3.816L148.724,104.09z"
				/>
			<path d="M173.872,106.834l0.364-0.012c0.58-0.036,1.192-0.316,1.88-0.852l-1.4-1.788c-0.44,0.344-0.632,0.38-0.844,0.384
				c-0.676,0-1.344-0.208-2.04-0.64l-1.196,1.924C171.688,106.502,172.776,106.834,173.872,106.834z"/>
			<path d="M202.472,83.206c0.184,0.716,0.332,1.436,0.452,2.124l2.236-0.388c-0.128-0.748-0.292-1.524-0.492-2.3L202.472,83.206z"
				/>
			<path d="M133.232,171.706c1.172,1.4,3.168-0.612,2.004-2.004c-1.6-1.916-3.268-3.768-4.972-5.58
				c1.408-1.38,2.896-2.688,4.528-3.844c1.476-1.048,0.06-3.508-1.432-2.448c-1.004,0.712-1.956,1.48-2.888,2.268
				c0.132-0.888,0.26-1.78,0.408-2.668l-2.236-0.376c-0.252,1.496-0.48,3-0.692,4.504l0.808,0.112
				c-0.156,0.148-0.312,0.296-0.468,0.448c-1.384-1.408-2.764-2.816-4.216-4.16c-1.336-1.236-3.348,0.764-2.004,2.004
				c1.464,1.356,2.86,2.78,4.26,4.2c-1.584,1.78-3.048,3.672-4.32,5.732c-0.96,1.556,1.488,2.98,2.448,1.432
				c1.136-1.84,2.444-3.54,3.852-5.148C129.996,167.978,131.648,169.81,133.232,171.706z"/>
		</g>
	</g>
</g>
<g>
</g>
<g>
</g>
<g>
</g>
<g>
</g>
<g>
</g>
<g>
</g>
<g>
</g>
<g>
</g>
<g>
</g>
<g>
</g>
<g>
</g>
<g>
</g>
<g>
</g>
<g>
</g>
<g>
</g>
</svg>
