<?xml version="1.0" encoding="iso-8859-1"?>
<!-- Generator: Adobe Illustrator 18.0.0, SVG Export Plug-In . SVG Version: 6.00 Build 0)  -->
<!DOCTYPE svg PUBLIC "-//W3C//DTD SVG 1.1//EN" "http://www.w3.org/Graphics/SVG/1.1/DTD/svg11.dtd">
<svg version="1.1" id="Capa_1" xmlns="http://www.w3.org/2000/svg" xmlns:xlink="http://www.w3.org/1999/xlink" x="0px" y="0px"
	 viewBox="0 0 206.026 206.026" style="enable-background:new 0 0 206.026 206.026;" xml:space="preserve">
<g>
	<path d="M181.887,103.89c-8.932-31.952-39.902-31.654-65.571-21.433c1.424-23.25,11.295-41.543,21.05-62.229
		c0.485-1.028-0.746-1.799-1.475-1.072c-0.053-0.113-0.061-0.235-0.166-0.333c-4.169-3.913-11.225-1.621-14.653,2.199
		c-0.337-0.057-0.686,0.01-0.91,0.431c-4.036,7.577-6.756,15.667-8.38,23.958C101.293,3.558,62.792-5.997,23.713,3.213
		c-0.268,0.063-0.419,0.242-0.509,0.452c-1.281,0.295-1.586,2.452-0.026,3.026c25.412,9.34,34.53,38.903,59.565,48.025
		c6.031,2.198,23.182,4.268,27.951-3.019c-1.207,9.846-0.798,19.897,1.292,29.721c-7.238-4.648-14.945-8.083-25.798-7.058
		c-16.63,1.57-29.088,12.531-34.385,28.073c-10.496,30.794-0.533,88.622,33.628,101.412c0.211,0.079,0.39,0.02,0.566-0.039
		c3.054,0.878,6.164,0.191,9.269-1.487c5.998-3.243,12.453-8.139,17.137-13.079c0.087-0.091,0.137-0.195,0.188-0.298
		c8.27,6.187,17.818,20.173,29.362,16.473c0.412,0.372,1.05,0.486,1.587-0.023c0.378-0.358,0.756-0.774,1.134-1.145
		c0.035-0.02,0.07-0.029,0.105-0.049c0.233-0.132,0.372-0.324,0.47-0.532C168.054,180.958,190.909,136.161,181.887,103.89z
		 M85.98,52.503c-3.656-1.09-7.159-2.943-10.419-5.144c4.301,0.335,8.614,0.472,12.925,0.202c0.794-0.05,0.806-1.278,0-1.246
		c-4.848,0.197-9.671,0.185-14.512-0.061c-1.994-1.45-3.887-3.011-5.639-4.6c-0.445-0.403-0.845-0.851-1.279-1.265
		c5.971,1.306,12.014,2.273,18.129,2.517c0.705,0.028,0.676-1.008,0-1.079c-6.595-0.692-13.123-1.526-19.605-2.899
		c-2.168-2.184-4.265-4.441-6.282-6.776c4.851,0.574,9.668,1.312,14.493,2.192c0.754,0.138,1.088-0.988,0.321-1.165
		c-5.212-1.202-10.546-1.871-15.885-2.277c-2.381-2.78-4.737-5.581-7.196-8.265c4.056,0.839,8.11,1.695,12.18,2.465
		c0.746,0.141,1.07-0.992,0.316-1.147c-4.589-0.946-9.197-1.795-13.802-2.662c-2.688-2.831-5.434-5.46-8.331-7.809
		c4.83,1.297,9.711,2.435,14.583,3.547c0.546,0.125,0.779-0.699,0.232-0.843c-5.479-1.443-10.979-2.901-16.525-4.07
		c-1.658-1.255-3.354-2.45-5.138-3.523c5.656,0.168,11.307,0.588,16.923,1.276c0.608,0.075,0.757-0.986,0.146-1.077
		C45.632,7.9,39.672,7.46,33.62,7.452c-0.251,0-0.381,0.149-0.453,0.326c-2.048-1.149-4.184-2.185-6.453-3.071
		c15.314-1.019,30.647-3.7,45.774,0.675c20.786,6.012,32.039,22.702,37.225,42.645c0.051,0.195,0.135,0.35,0.234,0.483
		C106.332,53.468,90.609,53.883,85.98,52.503z M121.88,22.457c0.009-0.021-0.006-0.038,0.002-0.058
		c1.701-1.663,3.847-2.635,6.224-2.895c2.45-0.268,4.257,0.572,6.543,1.168c0.062,0.016,0.112-0.021,0.172-0.016
		c-11.994,18.198-20.858,40.472-20.31,62.427c-0.206-0.139-0.414-0.271-0.62-0.41C110.551,61.541,113.264,42.08,121.88,22.457z
		 M178.353,134.912c-6.055,24.368-18.518,48.11-35.007,67.028c-12.797,4.316-20.288-9.943-30.562-14.689
		c-0.266-0.123-0.492-0.074-0.683,0.031c-0.333-0.214-0.758-0.261-1.185,0.028c-6.045,4.103-16.076,15.995-24.682,14.629
		c-4.216-2.048-8.031-4.809-11.512-8.043c4.753,0.867,9.503,1.733,14.293,2.388c0.552,0.076,0.812-0.749,0.237-0.861
		c-5.145-0.995-10.326-1.742-15.508-2.506c-2.265-2.215-4.333-4.692-6.273-7.314c7.222,0.704,14.442,1.454,21.678,1.988
		c0.544,0.04,0.524-0.776,0-0.837c-7.474-0.86-14.972-1.488-22.464-2.176l-0.003,0.001c-1.748-2.46-3.335-5.089-4.805-7.818
		c18.79-0.233,37.57-0.155,56.36-0.096c0.887,0.003,0.885-1.352,0-1.376c-18.963-0.52-37.944-0.229-56.899,0.51
		c-1.648-3.161-3.054-6.503-4.333-9.917c7.404,0.708,14.81,1.374,22.225,1.965c0.599,0.048,0.59-0.875,0-0.93
		c-7.502-0.699-15.008-1.322-22.519-1.901c-1.154-3.169-2.094-6.436-2.935-9.732c14.207,0.806,28.414,1.421,42.647,1.402
		c0.731-0.001,0.729-1.114,0-1.134c-14.303-0.407-28.607-0.708-42.903-1.335c-0.773-3.166-1.358-6.37-1.846-9.576
		c6.322,0.294,12.64,0.578,18.967,0.745c0.719,0.019,0.715-1.085,0-1.116c-6.369-0.271-12.737-0.423-19.11-0.565
		c-0.664-4.633-1.01-9.259-1.071-13.793c9.319,1.734,18.679,2.152,28.109,1.005c0.826-0.1,0.855-1.4,0-1.32
		c-9.463,0.885-18.746,0.685-28.138-0.816c-0.018-7.322,0.82-14.32,2.461-20.651c0.099,0.216,0.26,0.401,0.559,0.425
		c8.592,0.7,17.178,1.425,25.782,1.965c0.879,0.055,0.859-1.279,0-1.357c-8.586-0.782-17.184-1.379-25.782-2.002
		c-0.153-0.011-0.243,0.063-0.343,0.123c0.142-0.518,0.248-1.066,0.401-1.574c0.988-3.267,2.357-6.302,3.984-9.124
		c9.474,0.203,18.926,0.898,28.347,1.923c0.619,0.067,0.771-1.004,0.148-1.096c-9.22-1.36-18.443-1.986-27.746-2.116
		c1.558-2.494,3.369-4.763,5.362-6.817c0.104,0.105,0.236,0.19,0.425,0.195c9.032,0.28,18.068,0.659,27.104,0.767
		c0.984,0.012,0.979-1.489,0-1.525c-8.805-0.321-17.622-0.385-26.432-0.534c9.748-9.291,23.775-13.215,38.209-8.473
		c3.518,1.156,6.627,2.907,9.592,4.867c0.111,0.26,0.298,0.384,0.525,0.41c-0.206,0.818,0.719,1.885,1.787,1.424
		c0.085-0.036,0.173-0.072,0.258-0.109c6.416,4.598,12.325,9.918,20.099,12.466c1.212,0.397,1.629-1.402,0.514-1.864
		c-7.257-3.01-13.065-7.345-18.788-11.371c14.469-6.023,32.907-11.274,47.277-2.24C181.706,93.517,182.785,117.078,178.353,134.912z
		"/>
	<path d="M71.962,117.848c-6.371,0.025-12.713-0.341-19.007-1.36c-0.782-0.127-1.124,1.065-0.331,1.201
		c6.424,1.102,12.822,1.607,19.338,1.256C72.663,118.907,72.674,117.845,71.962,117.848z"/>
</g>
<g>
</g>
<g>
</g>
<g>
</g>
<g>
</g>
<g>
</g>
<g>
</g>
<g>
</g>
<g>
</g>
<g>
</g>
<g>
</g>
<g>
</g>
<g>
</g>
<g>
</g>
<g>
</g>
<g>
</g>
</svg>
