<?xml version="1.0" encoding="iso-8859-1"?>
<!-- Generator: Adobe Illustrator 18.0.0, SVG Export Plug-In . SVG Version: 6.00 Build 0)  -->
<!DOCTYPE svg PUBLIC "-//W3C//DTD SVG 1.1//EN" "http://www.w3.org/Graphics/SVG/1.1/DTD/svg11.dtd">
<svg version="1.1" id="Capa_1" xmlns="http://www.w3.org/2000/svg" xmlns:xlink="http://www.w3.org/1999/xlink" x="0px" y="0px"
	 viewBox="0 0 173.945 173.945" style="enable-background:new 0 0 173.945 173.945;" xml:space="preserve">
<g>
	<path d="M148.429,80.593c-1.362,0.917-0.082,3.139,1.295,2.216c18.712-12.545,21.264-39.848,2.003-53.563
		c-6.793-4.837-15.045-6.832-23.233-6.406C113.4-8.927,50.428-8.13,42.583,28.836c-0.194,0.915,1.097,1.27,1.399,0.385
		c0.693-2.035,1.555-3.951,2.562-5.751c0.818,0.015,1.635,0.03,2.455,0.021c0.466-0.005,0.467-0.72,0-0.725
		c-0.679-0.008-1.357,0.008-2.035,0.017c0.946-1.603,2.023-3.098,3.191-4.509c2.214,0.059,4.353-0.309,6.391-1.279
		c0.525-0.25,0.146-1.18-0.401-0.951c-1.7,0.708-3.394,1.182-5.172,1.348c1.868-2.106,4.027-3.921,6.32-5.571
		c1.051-0.118,2.098-0.261,3.124-0.488c0.596-0.132,0.476-1.124-0.146-1.077c-0.323,0.024-0.644,0.094-0.966,0.132
		c1.789-1.132,3.699-2.09,5.656-2.967c0.903-0.087,1.806-0.176,2.691-0.342c0.444-0.083,0.49-0.61,0.269-0.913
		c20.573-7.623,47.575-2.081,58.154,16.914c-1.885,0.208-3.763,0.496-5.606,0.953c-0.727,0.18-1.504,0.392-2.299,0.623
		c-17.616-18.8-58.271-23.222-67.85,6.162c-11.525-2.316-23.909,1.045-32.689,10.498c-0.381,0.41-0.717,0.858-1.075,1.287
		c-0.425-0.015-0.851-0.027-1.276-0.043c-0.602-0.023-0.591,0.887,0,0.93c0.167,0.012,0.335,0.027,0.502,0.039
		C5.683,56.636,5.94,77.373,21.987,85.636h0.001c-0.594,1.871-1.078,3.797-1.508,5.749c-0.189,0.006-0.381,0.016-0.569,0.021
		c-0.61,0.015-0.611,0.934,0,0.948c0.124,0.003,0.25,0.01,0.374,0.014c-0.843,4.135-1.345,8.427-1.362,12.903
		c-0.028,7.837,1.118,15.322,3.234,22.283c-0.153,0.216-0.057,0.556,0.204,0.662c0.963,3.059,2.095,6.025,3.431,8.856
		c-0.498,0.124-0.488,0.822,0.068,0.878c0.106,0.011,0.214,0.004,0.321,0.013c2.826,5.769,6.419,11.003,10.682,15.541
		c-5.087,4.398-14.196,11.166-8.088,18.306c2.102,2.457,5.321,2.711,8.066,1.184c1.917-1.066,3.386-2.831,4.853-4.412
		c1.859-2.002,4.007-3.935,5.408-6.291c0.027-0.046,0.007-0.096,0.024-0.143c10.078,6.723,22.388,10.418,36.247,9.843
		c0.002,0,0.002,0.002,0.002,0.002c0.013,0,0.024-0.002,0.035-0.002c0.417-0.017,0.815,0.015,1.235-0.01
		c0.069-0.004,0.097-0.056,0.156-0.073c14.258-0.478,27.451-4.567,38.318-11.525c2.803,6.539,10.615,16.698,18.973,12.352
		c9.176-4.772-3.534-17.85-8.47-20.696c12.096-11.842,19.264-28.334,18.463-47.782c-1.239-30.074-20.609-59.301-50.021-65.201
		c2.989-8.502,15.039-11.956,22.77-13.094c9.849-1.45,20.437,0.783,28.063,7.58C167.946,46.952,164.389,69.848,148.429,80.593z
		 M22.079,40.829c3.003-2.703,6.301-4.631,9.74-5.917c5.969,0.124,11.91,0.559,17.84,1.315c0.597,0.076,0.744-0.97,0.143-1.059
		c-4.956-0.733-9.921-1.113-14.91-1.226c10.787-2.747,22.594,0.64,31.46,8.267c-1.925,0.651-3.808,1.384-5.655,2.18
		c-13.47-0.871-27.01-1.204-40.485-1.663C20.817,42.084,21.408,41.433,22.079,40.829z M19.199,43.795
		c12.352,0.941,24.749,2.007,37.143,2.685c-4.189,2.137-8.161,4.61-11.806,7.465c-10.28-0.448-20.598-0.547-30.846-0.83
		C14.908,49.81,16.751,46.648,19.199,43.795z M13.403,53.838c9.627,0.609,19.304,1.388,28.979,1.897
		c-2.869,2.436-5.556,5.067-7.98,7.925c-7.498-0.434-15.026-0.654-22.488-1.025C11.928,59.68,12.43,56.711,13.403,53.838z
		 M11.951,63.394c7.06,0.54,14.163,1.219,21.266,1.727c-1.838,2.295-3.578,4.67-5.098,7.203c-5.11-0.672-10.202-1.463-15.28-2.514
		C12.256,67.714,12.002,65.558,11.951,63.394z M13.045,70.523c4.724,1.191,9.518,2.259,14.36,3.044
		c-1.874,3.29-3.564,6.703-4.839,10.354C17.72,80.223,14.605,75.548,13.045,70.523z M30.338,169.417
		c-0.749-1.214-0.934-2.428-0.764-3.628c1.997,0.514,4.011,0.98,6.014,1.454c1.028,0.243,1.462-1.367,0.435-1.578
		c-2.035-0.417-4.076-0.844-6.122-1.222c0.351-0.964,0.917-1.911,1.596-2.834h5.602c0.407,0,0.407-0.632,0-0.632h-5.104
		c1.115-1.392,2.446-2.706,3.706-3.933c1.76-0.198,3.511-0.004,5.278,0.606c0.111,0.039,0.203,0.022,0.275-0.025
		c1.399,1.226,2.839,2.402,4.355,3.485C42.314,163.649,34.278,175.8,30.338,169.417z M138.265,171.042
		c-6.402,0.43-11.245-6.581-13.595-11.576c-0.023-0.049-0.077-0.048-0.106-0.088c2.66-1.803,5.163-3.785,7.504-5.931
		c0.027,0.038,0.015,0.081,0.047,0.118C134.512,156.241,150.287,170.235,138.265,171.042z M149.895,104.257
		c1.408,38.551-29.477,63.92-66.515,65.914c-0.188,0.01-0.297,0.118-0.425,0.203c-17.124-0.814-31.275-4.431-42.701-16.578
		c3.347,0.276,6.709,0.621,10.062,0.629c0.431,0.001,0.404-0.601,0-0.651c-3.537-0.437-7.13-0.499-10.693-0.666
		c-1.13-1.244-2.243-2.543-3.318-3.965c-0.725-0.958-1.377-1.965-2.052-2.957c1.585,0.287,3.169,0.436,4.829,0.292
		c0.494-0.043,0.506-0.812,0-0.781c-1.869,0.115-3.689-0.078-5.5-0.477c-1.504-2.289-2.834-4.681-4.071-7.12
		c1.435-0.006,2.87-0.069,4.282-0.188c0.537-0.045,0.538-0.791,0-0.837c-1.612-0.136-3.253-0.182-4.89-0.163
		c-1.372-2.833-2.541-5.758-3.544-8.739c2.146-0.075,4.288-0.131,6.448-0.063c0.652,0.021,0.637-0.955,0-1.004
		c-2.245-0.174-4.52-0.133-6.778,0.05c-0.808-2.523-1.434-5.099-1.969-7.695c2.262,0.074,4.537,0.149,6.766-0.068
		c0.525-0.051,0.526-0.767,0-0.818c-2.291-0.223-4.632-0.139-6.957-0.063c-0.484-2.513-0.81-5.054-1.037-7.607
		c2.516,0.316,5.098,0.321,7.529-0.461c0.817-0.263,0.479-1.428-0.351-1.273c-2.439,0.456-4.769,0.8-7.236,0.664
		c-0.111-1.519-0.243-3.036-0.246-4.564c-0.01-4.442,0.441-8.717,1.294-12.809c1.46,0.055,2.921,0.081,4.359-0.071
		c0.657-0.069,0.658-0.953,0-1.023c-1.34-0.141-2.699-0.129-4.058-0.082c0.462-2.01,1.048-3.96,1.702-5.875
		c2.104,0.309,4.255,0.638,6.319,0.559c0.704-0.027,0.919-1.116,0.173-1.278c-1.931-0.419-3.983-0.494-6.01-0.557
		c1.319-3.589,3.002-6.976,4.939-10.191c3.925,0.539,7.864,0.924,11.808,0.963c-8.165,11.134-12.439,25.153-10.801,39.752
		c2.952,26.304,30.541,56.791,58.684,47.119c0.18,0.127,0.401,0.213,0.699,0.184c70.026-6.705,62.87-118.503-9.388-110.128
		c-15.89,1.842-29.589,10.347-38.681,22.363c-0.054-0.035-0.096-0.082-0.17-0.091c-3.802-0.485-7.593-0.94-11.378-1.415
		c1.648-2.591,3.507-5.032,5.514-7.347c3.943,0.24,7.883,0.423,11.811,0.427c0.615,0,0.576-0.858,0-0.93
		c-3.478-0.435-6.982-0.736-10.495-0.982c2.672-2.895,5.646-5.514,8.815-7.906c4.527,0.191,9.051,0.319,13.567,0.288
		c0.828-0.006,0.796-1.186,0-1.264c-3.667-0.36-7.35-0.617-11.038-0.825c4.274-2.935,8.92-5.394,13.815-7.381
		c3.484,0.143,6.969,0.296,10.45,0.341c1.132,0.015,1.087-1.623,0-1.729c-1.815-0.177-3.643-0.277-5.463-0.427
		c5.496-1.787,11.253-2.993,17.18-3.477C121.975,38.475,148.601,68.838,149.895,104.257z M76.326,55.151
		c71.268-15.981,84.309,97.351,14.312,104.433c-0.492,0.05-0.809,0.344-0.982,0.703C59.67,166.106,33.41,137.9,33.174,109.024
		C32.962,83.134,51.216,60.781,76.326,55.151z M101.19,38.907c-4.041-0.742-8.255-1.078-12.647-0.885
		c-6.612,0.29-13.049,1.412-19.189,3.217c-0.019-0.021-0.022-0.045-0.043-0.066c-4.99-5.101-11.119-8.433-17.574-10.004
		c11.34-26.609,46.225-23.168,63.833-5.689C108.824,27.807,101.393,31.956,101.19,38.907z"/>
	<path d="M132.946,108.944c-13.081,0.173-26.38-0.035-39.424,1.07c-0.523-2.019-1.613-3.879-3.274-5.199
		c-3.831-3.046-9.702-2.73-13.12,0.645c-3.833,3.395-4.815,9.368-1.406,13.584c1.552,1.919,3.816,3.065,6.216,3.489
		c-1.215,8.907-1.929,17.876-2.406,26.852c-0.076,1.422,2.022,1.359,2.175,0c1.001-8.86,1.786-17.757,2.05-26.67
		c2.68,0.036,5.364-0.836,7.302-2.757c2.141-2.122,3.019-5.202,2.747-8.171c12.913,1.206,26.238,0.533,39.139-0.388
		C134.503,111.287,134.543,108.923,132.946,108.944z M88.972,117.869c-2.981,2.948-8.478,2.491-11.042-0.765
		c-1.981-2.516-1.992-6.11-0.612-8.947c0.13-0.047,0.269-0.045,0.382-0.157c2.705-2.695,7.072-3.866,10.472-1.62
		C91.936,108.866,92.077,114.798,88.972,117.869z"/>
	<path d="M64.309,162.886c-5.395-1.811-10.894-3.116-16.488-4.147c-0.547-0.101-0.787,0.73-0.232,0.842
		c5.559,1.132,11.032,2.6,16.478,4.183C64.634,163.929,64.861,163.071,64.309,162.886z"/>
	<path d="M29.988,99.891c-2.432-0.343-4.981-0.117-7.433-0.096c-0.873,0.007-0.875,1.35,0,1.357
		c2.452,0.021,5.001,0.246,7.433-0.096C30.565,100.975,30.565,99.972,29.988,99.891z"/>
</g>
<g>
</g>
<g>
</g>
<g>
</g>
<g>
</g>
<g>
</g>
<g>
</g>
<g>
</g>
<g>
</g>
<g>
</g>
<g>
</g>
<g>
</g>
<g>
</g>
<g>
</g>
<g>
</g>
<g>
</g>
</svg>
