<?xml version="1.0" encoding="UTF-8" standalone="no"?>
<!-- Generator: Adobe Illustrator 18.0.0, SVG Export Plug-In . SVG Version: 6.00 Build 0)  -->

<svg
   xmlns:dc="http://purl.org/dc/elements/1.1/"
   xmlns:cc="http://creativecommons.org/ns#"
   xmlns:rdf="http://www.w3.org/1999/02/22-rdf-syntax-ns#"
   xmlns:svg="http://www.w3.org/2000/svg"
   xmlns="http://www.w3.org/2000/svg"
   xmlns:sodipodi="http://sodipodi.sourceforge.net/DTD/sodipodi-0.dtd"
   xmlns:inkscape="http://www.inkscape.org/namespaces/inkscape"
   version="1.1"
   id="Capa_1"
   x="0px"
   y="0px"
   viewBox="0 0 270.279 270.279"
   style="enable-background:new 0 0 270.279 270.279;"
   xml:space="preserve"
   width="512px"
   height="512px"
   inkscape:version="0.91 r13725"
   sodipodi:docname="imagen-cocinandose.svg"><metadata
     id="metadata69"><rdf:RDF><cc:Work
         rdf:about=""><dc:format>image/svg+xml</dc:format><dc:type
           rdf:resource="http://purl.org/dc/dcmitype/StillImage" /><dc:title></dc:title></cc:Work></rdf:RDF></metadata><defs
     id="defs67" /><sodipodi:namedview
     pagecolor="#ffffff"
     bordercolor="#666666"
     borderopacity="1"
     objecttolerance="10"
     gridtolerance="10"
     guidetolerance="10"
     inkscape:pageopacity="0"
     inkscape:pageshadow="2"
     inkscape:window-width="1366"
     inkscape:window-height="704"
     id="namedview65"
     showgrid="false"
     inkscape:zoom="0.4609375"
     inkscape:cx="256"
     inkscape:cy="256"
     inkscape:window-x="0"
     inkscape:window-y="27"
     inkscape:window-maximized="1"
     inkscape:current-layer="Capa_1" /><g
     id="g3"><path
       d="M268.859,65.54c-0.125-0.152-0.298-0.181-0.454-0.26c-5.008-11.535-14.603-17.34-27.055-11.934   c-9.241,4.011-16.385,12.821-23.895,19.24c-11.331,9.685-23.445,18.279-35.9,26.423c-45.493-0.453-91.225,0.064-136.581,0.349   c-0.579-0.756-1.925-0.681-2.457,0.216c-0.734,0.357-0.856,1.304-0.298,1.859c-0.187,2.441-0.319,4.884-0.486,7.326   c-12.101-16.444-43.028-8.221-41.692,13.72c1.052,17.269,25.734,27.746,39.957,19.157c-0.427,11.763-0.685,23.534-0.771,35.317   c-0.133,18.032-3.491,40.954,2.978,58.335c3.481,9.352,9.858,14.47,19.486,16.481c22.039,4.604,48,1.55,70.431,1.779   c21.721,0.222,48.498,4.576,69.738-0.315c9.906-2.281,15.832-8.548,19.217-17.988c6.382-17.797,3.483-40.343,3.306-58.768   c-0.111-11.434-0.424-22.863-0.879-34.285c8.769,6.126,20.16,10.479,30.44,5.378c8.384-4.16,12.561-13.84,11.114-22.911   c-2.8-17.548-31.222-30.065-43.286-15.22c-0.157-2.42-0.29-4.841-0.459-7.259c-0.073-1.056-0.793-1.663-1.605-1.864   c-0.196-0.402-0.577-0.716-1.186-0.731c-3.803-0.092-7.627-0.115-11.439-0.178c7.183-5.03,14.354-10.078,21.445-15.236   c7.564-5.501,16.361-16.472,24.883-9.003c-0.188,0.28-0.247,0.655,0.052,1.021c3.059,3.759,8.649,4.62,12.649,1.801   C269.679,75.478,271.873,69.199,268.859,65.54z M40.855,124.551c-3.397,0.941-6.779,1.333-10.281,0.773   c-3.228-0.516-15.242-4.161-7.383-10.001c5.488-4.078,12.569,1.141,17.957,3.833C41.042,120.954,40.953,122.753,40.855,124.551z    M41.385,114.825c-7.711-4.998-22.514-7.975-24.766,2.727c-1.068,5.076,3.701,8.302,7.81,9.868   c5.362,2.043,11.055,1.808,16.287-0.307c-0.173,3.371-0.415,6.74-0.55,10.113c-12.173,3.999-26.509,4.344-33.741-8.741   c-4.915-8.894,0.748-18.778,9.202-22.795c8.635-4.103,17.5-1.051,24.458,4.654c0.456,0.374,1.102,0.317,1.541,0.028   C41.528,111.855,41.478,113.34,41.385,114.825z M222.386,120.106c1.889-1.231,3.697-2.61,5.902-3.345   c3.997-1.332,9.731-0.598,10.988,4.202c1.185,4.527-3.54,6.927-7.414,6.624c-3.523-0.275-6.595-2.336-9.317-4.475   C222.488,122.111,222.444,121.108,222.386,120.106z M243.62,107.656c8.67,2.086,16.209,8.769,17.558,17.791   c1.331,8.9-3.352,17.365-12.196,20.023c-9.081,2.728-17.819-1.335-25.563-5.767c-0.187-4.473-0.466-8.943-0.707-13.414   c3.337,2.821,7.209,5.049,11.756,4.545c4.769-0.528,9.139-4.161,8.847-9.25c-0.283-4.942-5.056-8.618-9.685-9.255   c-3.733-0.514-8.01,0.787-11.496,2.991c-0.022-0.363-0.035-0.726-0.057-1.088C228.287,108.547,235.115,105.611,243.62,107.656z    M217.259,102.452c0.386,5.362,0.682,10.732,1.004,16.099c-0.291,0.322-0.601,0.636-0.854,0.971   c-0.783,1.036,0.059,1.979,1.053,2.219c1.618,28.129,2.351,56.315,1.684,84.485c-0.172,7.257,0.271,15.73-1.786,22.806   c-5.079,17.478-19.891,20.62-34.868,20.684c-17.122,0.073-34.247-0.059-51.368-0.213c-17.121-0.154-34.245-0.324-51.364-0.659   c-14.788-0.29-32.094-1.904-36.151-19.244c-1.643-7.025-1.317-14.809-1.439-21.945c-0.504-29.294,0.285-58.579,1.357-87.851   c0.569-0.554,0.705-1.632,0.127-2.292c-0.012-0.013-0.029-0.026-0.04-0.039c0.192-5.179,0.376-10.359,0.58-15.537   C101.694,105.535,160.802,106.56,217.259,102.452z M264.275,75.022c-1.734,1.584-4.146,1.983-6.367,1.483   c0.238-0.567,0.239-1.249-0.225-1.848c-6.519-8.399-11.226-7.968-19.219-2.098c-11.909,8.748-23.664,17.7-35.317,26.785   c-5.645-0.083-11.281-0.199-16.931-0.264c9.268-5.482,18.188-11.481,26.687-18.136c12.993-10.175,38.047-41.343,52.843-13.572   c0.107,0.201,0.246,0.359,0.404,0.479C266.339,70.526,266.649,72.854,264.275,75.022z"
       fill="#9e9e9e"
       id="path5" /><path
       d="M220.839,26.257c0.203-0.277,0.32-0.62,0.211-1.032c-0.684-2.579-4.607-3.346-6.911-3.169   c-2.501,0.192-4.66,1.427-5.986,3.49c-0.01,0.015-0.02,0.028-0.029,0.043c-0.035,0.055-0.07,0.109-0.108,0.161   c-0.33-0.337-0.794-0.563-1.42-0.547c-24.748,0.629-49.787,3.566-74.24,9.071c0.568-5.714,0.845-12.35-3.788-16.423   c-3.737-3.285-9.389-3.92-13.944-2.154c-9.041,3.506-11.071,18.505-2.706,23.826c-23.9,6.928-46.975,16.471-68.361,28.899   c-3.727-2.757-9.196-1.623-11.486,2.443c-0.15,0.266-0.084,0.532,0.046,0.767c-0.056,0.267-0.04,0.561,0.126,0.876   c5.706,10.841,16.759,12.3,28.122,12.603c25.136,0.67,51.154-2.961,75.745-7.941C156.999,72.94,233.203,62.145,220.839,26.257z    M115.056,38.543c-2.25-3.224-4.274-6.024-4.261-10.161c0.013-3.894,2.011-7.478,5.805-8.772c3.12-1.064,7.141-0.554,9.495,1.904   c3.384,3.533,1.961,9.297,2.07,13.765c-4.382,1.043-8.744,2.164-13.08,3.375C115.063,38.616,115.084,38.582,115.056,38.543z    M206.597,29.329c0.84-0.031,1.385-0.482,1.694-1.058c6.453,27.676-67.995,38.498-83.279,41.325   c-24.267,4.489-56.951,14.972-79.6,0.987C97.348,46.68,149.121,31.44,206.597,29.329z M127.931,74.556   c-20.317,3.764-79.027,18.226-93.472-3.344c-0.065-0.097-0.146-0.154-0.222-0.226c1.767-1.499,4.136-1.852,6.296-1.156   c10.106,9.898,23.081,11.259,36.92,10.243c21.036-1.545,42.366-5.636,62.998-9.898c19.016-3.928,81.461-11.861,70.9-44.189   c-0.019-0.059-0.06-0.092-0.083-0.146c0.99-0.445,2.062-0.709,3.155-0.722c0.863-0.01,1.733,0.125,2.537,0.454   c0.006,0.024-0.002,0.043,0.005,0.067C225.929,59.111,148.513,70.742,127.931,74.556z"
       fill="#9e9e9e"
       id="path7" /><path
       d="M213.781,240.738c-15.38,2.518-31.444-0.447-46.911-0.817c-14.814-0.354-29.578,0.042-44.352,1.196   c-0.589,0.046-0.606,0.949,0,0.93c17.071-0.544,34.108-0.745,51.175,0.097c13.61,0.672,27.109,2.825,40.641,0.602   C215.656,242.529,215.094,240.523,213.781,240.738z"
       fill="#9e9e9e"
       id="path9" /><path
       d="M218.358,233.166c-25.591-0.945-51.199-1.499-76.799-2.108c-0.504-0.013-0.5,0.758,0,0.781   c25.592,1.149,51.193,2.355,76.799,3.168C219.543,235.044,219.539,233.21,218.358,233.166z"
       fill="#9e9e9e"
       id="path11" /><path
       d="M218.367,219.227c-22.532,0.342-45.057,0.373-67.589,0.075c-0.564-0.007-0.562,0.853,0,0.874   c22.521,0.852,45.051,1.223,67.589,1.096C219.683,221.265,219.685,219.207,218.367,219.227z"
       fill="#9e9e9e"
       id="path13" /><path
       d="M219.007,212.702c-16.813-0.912-33.586-0.977-50.403-0.123c-0.595,0.031-0.602,0.942,0,0.929   c16.823-0.334,33.622,0.079,50.403,1.314C220.362,214.922,220.372,212.777,219.007,212.702z"
       fill="#9e9e9e"
       id="path15" /><path
       d="M220.207,199.094c-12.715,0.462-25.35,1.533-38.092,1.576c-0.767,0.003-0.765,1.172,0,1.19   c12.63,0.296,25.531,0.499,38.092-0.999C221.304,200.73,221.371,199.052,220.207,199.094z"
       fill="#9e9e9e"
       id="path17" /><path
       d="M221.433,188.202c-11.503-0.573-23.464,1.461-35.015,1.815c-1.05,0.032-1.057,1.651,0,1.636   c11.417-0.156,24.033,0.487,35.197-2.099C222.398,189.372,222.185,188.24,221.433,188.202z"
       fill="#9e9e9e"
       id="path19" /><path
       d="M219.605,177.426c-13.647-1.064-27.611,0.012-41.201,1.405c-0.821,0.084-0.84,1.373,0,1.301   c13.777-1.174,27.407-0.913,41.201-1.051C220.684,179.07,220.657,177.508,219.605,177.426z"
       fill="#9e9e9e"
       id="path21" /><path
       d="M218.977,165.185c-12.69-0.952-26.042,0.74-38.697,1.87c-0.645,0.058-0.666,1.052,0,1.023   c12.798-0.558,25.982,0.012,38.697-1.405C219.919,166.568,219.948,165.258,218.977,165.185z"
       fill="#9e9e9e"
       id="path23" /><path
       d="M217.746,151.963c-11.605-0.226-23.439,1.27-35.017,2.073c-0.614,0.043-0.627,0.994,0,0.967   c11.591-0.488,23.512-0.325,35.017-1.832C218.491,153.073,218.548,151.978,217.746,151.963z"
       fill="#9e9e9e"
       id="path25" /><path
       d="M219.601,138.609c-13.228-0.497-26.708,0.783-39.939,1.281c-0.846,0.031-0.854,1.339,0,1.32   c13.234-0.289,26.765,0.184,39.939-1.095C220.552,140.023,220.587,138.646,219.601,138.609z"
       fill="#9e9e9e"
       id="path27" /><path
       d="M220.806,123.049c-13.745,0.848-27.332,3.085-41.133,3.681c-0.881,0.038-0.891,1.394,0,1.376   c13.585-0.281,28.041-0.599,41.305-3.779C221.681,124.159,221.546,123.004,220.806,123.049z"
       fill="#9e9e9e"
       id="path29" /><path
       d="M217.785,113.421c-10.904,0.26-21.653,1.335-32.592,0.996c-0.926-0.029-0.914,1.379,0,1.432   c10.801,0.619,22.116,1.099,32.826-0.692C219.009,114.99,218.764,113.397,217.785,113.421z"
       fill="#9e9e9e"
       id="path31" /><path
       d="M215.296,106.919c-7.549-0.362-15.176,0.002-22.734,0.065c-1.114,0.009-1.116,1.72,0,1.729   c7.555,0.064,15.184,0.427,22.734,0.065C216.491,108.721,216.493,106.977,215.296,106.919z"
       fill="#9e9e9e"
       id="path33" /></g><g
     id="g35" /><g
     id="g37" /><g
     id="g39" /><g
     id="g41" /><g
     id="g43" /><g
     id="g45" /><g
     id="g47" /><g
     id="g49" /><g
     id="g51" /><g
     id="g53" /><g
     id="g55" /><g
     id="g57" /><g
     id="g59" /><g
     id="g61" /><g
     id="g63" /><text
     xml:space="preserve"
     style="font-style:normal;font-weight:normal;font-size:21.11554718px;line-height:125%;font-family:sans-serif;letter-spacing:0px;word-spacing:0px;fill:#000000;fill-opacity:1;stroke:none;stroke-width:1px;stroke-linecap:butt;stroke-linejoin:miter;stroke-opacity:1"
     x="129.20753"
     y="162.6255"
     id="text3397"
     sodipodi:linespacing="125%"><tspan
       sodipodi:role="line"
       id="tspan3399"
       x="134.24928"
       y="162.6255"
       style="font-size:31.67331975px;text-align:center;text-anchor:middle">IMAGEN </tspan><tspan
       sodipodi:role="line"
       x="129.20753"
       y="202.21715"
       id="tspan3401"
       style="font-size:31.67331975px;text-align:center;text-anchor:middle">COCINANDOSE</tspan></text>
<flowRoot
     xml:space="preserve"
     id="flowRoot3403"
     style="fill:black;stroke:none;stroke-opacity:1;stroke-width:1px;stroke-linejoin:miter;stroke-linecap:butt;fill-opacity:1;font-family:sans-serif;font-style:normal;font-weight:normal;font-size:40px;line-height:125%;letter-spacing:0px;word-spacing:0px"><flowRegion
       id="flowRegion3405"><rect
         id="rect3407"
         width="351.45764"
         height="88.94915"
         x="125.83051"
         y="284.2034" /></flowRegion><flowPara
       id="flowPara3409"></flowPara></flowRoot></svg>